<svg width="24" height="24" viewBox="0 0 24 24" fill="none" xmlns="http://www.w3.org/2000/svg">
<path fill-rule="evenodd" clip-rule="evenodd" d="M8.72892 8.72893C9.59647 7.86138 10.7731 7.374 12 7.374C13.2269 7.374 14.4035 7.86138 15.2711 8.72893C16.1386 9.59647 16.626 10.7731 16.626 12C16.626 13.2269 16.1386 14.4035 15.2711 15.2711C14.4035 16.1386 13.2269 16.626 12 16.626C10.7731 16.626 9.59647 16.1386 8.72892 15.2711C7.86138 14.4035 7.374 13.2269 7.374 12C7.374 10.7731 7.86138 9.59647 8.72892 8.72893ZM10.8508 14.7744C11.2151 14.9253 11.6056 15.003 12 15.003C12.7964 15.003 13.5603 14.6866 14.1234 14.1234C14.6866 13.5603 15.003 12.7964 15.003 12C15.003 11.2036 14.6866 10.4397 14.1234 9.87656C13.5603 9.31339 12.7964 8.997 12 8.997C11.6056 8.997 11.2151 9.07468 10.8508 9.22559C10.4865 9.37651 10.1554 9.59771 9.87656 9.87656C9.5977 10.1554 9.3765 10.4865 9.22559 10.8508C9.07467 11.2151 8.997 11.6056 8.997 12C8.997 12.3944 9.07467 12.7849 9.22559 13.1492C9.3765 13.5135 9.5977 13.8446 9.87656 14.1234C10.1554 14.4023 10.4865 14.6235 10.8508 14.7744Z" fill="#AAAAAA"/>
<path d="M17.6515 8.06322C17.8566 7.85815 17.9718 7.58002 17.9718 7.29C17.9718 6.99999 17.8566 6.72185 17.6515 6.51678C17.4464 6.31171 17.1683 6.1965 16.8783 6.1965C16.5883 6.1965 16.3101 6.31171 16.1051 6.51678C15.9 6.72185 15.7848 6.99999 15.7848 7.29C15.7848 7.58002 15.9 7.85815 16.1051 8.06322C16.3101 8.2683 16.5883 8.3835 16.8783 8.3835C17.1683 8.3835 17.4464 8.2683 17.6515 8.06322Z" fill="#AAAAAA"/>
<path fill-rule="evenodd" clip-rule="evenodd" d="M8.2896 3.054C9.2496 3.0102 9.5556 3 12 3C14.445 3 14.7504 3.0108 15.7098 3.054C16.668 3.0978 17.3232 3.2508 17.8956 3.4722C18.4959 3.69831 19.0397 4.05253 19.4892 4.5102C19.947 4.95979 20.3012 5.50384 20.5272 6.1044C20.7498 6.6768 20.9022 7.3314 20.946 8.2896C20.9898 9.2496 21 9.5556 21 12C21 14.4444 20.9898 14.7504 20.946 15.7104C20.9022 16.6686 20.7498 17.3232 20.5278 17.8956C20.3017 18.4959 19.9475 19.0397 19.4898 19.4892C19.0398 19.9476 18.4956 20.3016 17.8956 20.5272C17.3232 20.7498 16.6686 20.9022 15.7104 20.946C14.7504 20.9898 14.4444 21 12 21C9.5556 21 9.2496 20.9898 8.2896 20.946C7.3314 20.9022 6.6768 20.7498 6.1044 20.5278C5.50411 20.3017 4.96029 19.9475 4.5108 19.4898C4.0524 19.0398 3.6984 18.4956 3.4728 17.8956C3.2502 17.3232 3.0978 16.6686 3.054 15.7104C3.0102 14.7504 3 14.445 3 12C3 9.555 3.0108 9.2496 3.054 8.2902C3.0978 7.332 3.2508 6.6768 3.4722 6.1044C3.69831 5.5041 4.05253 4.96028 4.5102 4.5108C4.9602 4.0524 5.5044 3.6984 6.1044 3.4728C6.6768 3.2502 7.3314 3.0978 8.2896 3.054ZM15.6372 4.674C14.688 4.6308 14.403 4.6218 12 4.6218C9.597 4.6218 9.312 4.6308 8.3628 4.674C7.4856 4.7142 7.0092 4.8606 6.6918 4.9842C6.30085 5.12819 5.94716 5.35803 5.6568 5.6568C5.3424 5.9718 5.1468 6.2718 4.9842 6.6918C4.86 7.0092 4.7142 7.4856 4.674 8.3628C4.6308 9.312 4.6218 9.597 4.6218 12C4.6218 14.403 4.6308 14.688 4.674 15.6372C4.7142 16.5144 4.8606 16.9908 4.9842 17.3082C5.12828 17.6991 5.35811 18.0528 5.6568 18.3432C5.9472 18.6419 6.30087 18.8718 6.6918 19.0158C7.0092 19.14 7.4856 19.2858 8.3628 19.326C9.312 19.3692 9.5964 19.3782 12 19.3782C14.4036 19.3782 14.688 19.3692 15.6372 19.326C16.5144 19.2858 16.9908 19.1394 17.3082 19.0158C17.6992 18.8718 18.0528 18.642 18.3432 18.3432C18.6419 18.0528 18.8718 17.6991 19.0158 17.3082C19.14 16.9908 19.2858 16.5144 19.326 15.6372C19.3692 14.688 19.3782 14.403 19.3782 12C19.3782 9.597 19.3692 9.312 19.326 8.3628C19.2858 7.4856 19.1394 7.0092 19.0158 6.6918C18.8532 6.2718 18.6582 5.9718 18.3432 5.6568C18.0282 5.3424 17.7282 5.1468 17.3082 4.9842C16.9908 4.86 16.5144 4.7142 15.6372 4.674Z" fill="#AAAAAA"/>
</svg>
