<svg width="25" height="25" viewBox="0 0 25 25" fill="none" xmlns="http://www.w3.org/2000/svg">
<path d="M16.6048 16.009C15.821 16.7046 14.8421 17.5702 13.0673 17.5702H12.0059C10.7215 17.5702 9.55334 17.1033 8.71717 16.2571C7.90036 15.4303 7.45072 14.2986 7.45072 13.0702V11.618C7.45072 10.3896 7.90036 9.25795 8.71717 8.43111C9.55334 7.5849 10.7215 7.11877 12.0059 7.11877H13.0673C14.8443 7.11877 15.821 7.98362 16.6048 8.67923C17.4188 9.39636 18.1208 10.0231 19.9933 10.0231C20.2788 10.0231 20.5639 10.0003 20.8459 9.955L20.8395 9.9385C20.7273 9.65999 20.5957 9.38969 20.4458 9.12959L19.1944 6.96172C18.6301 5.98444 17.8184 5.17292 16.8411 4.60872C15.8638 4.04451 14.7551 3.74751 13.6266 3.74756H11.1231C9.99462 3.74751 8.88598 4.04451 7.90864 4.60872C6.93129 5.17292 6.11968 5.98444 5.55536 6.96172L4.30398 9.12959C3.73985 10.107 3.44287 11.2156 3.44287 12.3441C3.44287 13.4726 3.73985 14.5812 4.30398 15.5586L5.55536 17.7265C6.11968 18.7038 6.93129 19.5153 7.90864 20.0795C8.88598 20.6437 9.99462 20.9407 11.1231 20.9406H13.6266C14.7551 20.9407 15.8638 20.6437 16.8411 20.0795C17.8184 19.5153 18.6301 18.7038 19.1944 17.7265L20.4458 15.5622C20.5957 15.3021 20.7273 15.0318 20.8395 14.7533L20.8459 14.7375C20.5641 14.6907 20.2789 14.6667 19.9933 14.6658C18.1208 14.6658 17.4188 15.289 16.6048 16.0097" fill="#006BFF"/>
<path d="M13.0667 8.43457H12.0054C10.0505 8.43457 8.76611 9.83081 8.76611 11.6179V13.0701C8.76611 14.8571 10.0505 16.2534 12.0054 16.2534H13.0667C15.9151 16.2534 15.6914 13.349 19.9927 13.349C20.4002 13.3486 20.8069 13.386 21.2075 13.4609C21.338 12.722 21.338 11.966 21.2075 11.2271C20.8069 11.3016 20.4002 11.339 19.9927 11.3389C15.69 11.3389 15.9151 8.43457 13.0667 8.43457Z" fill="#006BFF"/>
<path d="M23.6787 14.5222C22.9462 13.9857 22.1015 13.6226 21.2082 13.4601C21.2082 13.468 21.2082 13.4745 21.2082 13.4816C21.1313 13.9098 21.0112 14.3291 20.8497 14.733C21.5876 14.8473 22.2877 15.1356 22.892 15.5742C22.892 15.5799 22.8885 15.5871 22.8863 15.5936C22.1085 18.1123 20.453 20.2684 18.2206 21.6703C15.9883 23.0722 13.3271 23.6269 10.7205 23.2335C8.114 22.8402 5.73499 21.525 4.01569 19.5268C2.2964 17.5286 1.35087 14.98 1.35087 12.3439C1.35087 9.70786 2.2964 7.15924 4.01569 5.16104C5.73499 3.16284 8.114 1.84762 10.7205 1.4543C13.3271 1.06097 15.9883 1.61564 18.2206 3.01754C20.453 4.41945 22.1085 6.57558 22.8863 9.09426C22.8863 9.10071 22.8899 9.10788 22.892 9.11362C22.2878 9.55224 21.5876 9.84038 20.8497 9.95409C21.011 10.3586 21.1311 10.7783 21.2082 11.2069C21.2078 11.2136 21.2078 11.2203 21.2082 11.227C22.1015 11.0648 22.9462 10.7019 23.6787 10.1656C24.3829 9.64429 24.2467 9.05553 24.1398 8.70701C23.2692 5.88305 21.4143 3.46515 18.9122 1.89268C16.4102 0.320213 13.4271 -0.302471 10.5049 0.137781C7.58275 0.578033 4.9155 2.052 2.98783 4.29185C1.06016 6.5317 0 9.38878 0 12.3439C0 15.2991 1.06016 18.1561 2.98783 20.396C4.9155 22.6358 7.58275 24.1098 10.5049 24.55C13.4271 24.9903 16.4102 24.3676 18.9122 22.7951C21.4143 21.2227 23.2692 18.8048 24.1398 15.9808C24.2467 15.6323 24.3829 15.0435 23.6787 14.5222Z" fill="#006BFF"/>
<path d="M20.8464 9.95397C20.5645 10.0008 20.2794 10.0248 19.9937 10.0257C18.1213 10.0257 17.4192 9.4025 16.606 8.68179C15.8215 7.98618 14.8447 7.12061 13.0677 7.12061H12.0064C10.7213 7.12061 9.55378 7.58745 8.71762 8.43366C7.90081 9.26051 7.45117 10.3921 7.45117 11.6206V13.0727C7.45117 14.3012 7.90081 15.4328 8.71762 16.2597C9.55378 17.1059 10.7213 17.572 12.0064 17.572H13.0677C14.8447 17.572 15.8215 16.7071 16.606 16.0115C17.4192 15.2944 18.1213 14.6676 19.9937 14.6676C20.2793 14.6677 20.5644 14.6905 20.8464 14.7358C21.0082 14.3319 21.1284 13.9126 21.2049 13.4844C21.2053 13.4772 21.2053 13.47 21.2049 13.4629C20.8043 13.3886 20.3976 13.3514 19.9901 13.3517C15.6874 13.3517 15.9125 16.2568 13.0641 16.2568H12.0028C10.0479 16.2568 8.76351 14.8598 8.76351 13.0727V11.6177C8.76351 9.83062 10.0479 8.43438 12.0028 8.43438H13.0641C15.9125 8.43438 15.6888 11.338 19.9901 11.338C20.3976 11.3387 20.8043 11.3015 21.2049 11.2269C21.2049 11.2204 21.2049 11.214 21.2049 11.2068C21.1278 10.7782 21.0077 10.3585 20.8464 9.95397Z" fill="#61396D"/>
<path d="M20.8464 9.95397C20.5645 10.0008 20.2794 10.0248 19.9937 10.0257C18.1213 10.0257 17.4192 9.4025 16.606 8.68179C15.8215 7.98618 14.8447 7.12061 13.0677 7.12061H12.0064C10.7213 7.12061 9.55378 7.58745 8.71762 8.43366C7.90081 9.26051 7.45117 10.3921 7.45117 11.6206V13.0727C7.45117 14.3012 7.90081 15.4328 8.71762 16.2597C9.55378 17.1059 10.7213 17.572 12.0064 17.572H13.0677C14.8447 17.572 15.8215 16.7071 16.606 16.0115C17.4192 15.2944 18.1213 14.6676 19.9937 14.6676C20.2793 14.6677 20.5644 14.6905 20.8464 14.7358C21.0082 14.3319 21.1284 13.9126 21.2049 13.4844C21.2053 13.4772 21.2053 13.47 21.2049 13.4629C20.8043 13.3886 20.3976 13.3514 19.9901 13.3517C15.6874 13.3517 15.9125 16.2568 13.0641 16.2568H12.0028C10.0479 16.2568 8.76351 14.8598 8.76351 13.0727V11.6177C8.76351 9.83062 10.0479 8.43438 12.0028 8.43438H13.0641C15.9125 8.43438 15.6888 11.338 19.9901 11.338C20.3976 11.3387 20.8043 11.3015 21.2049 11.2269C21.2049 11.2204 21.2049 11.214 21.2049 11.2068C21.1278 10.7782 21.0077 10.3585 20.8464 9.95397Z" fill="#0AE8F0"/>
</svg>
