<svg width="32" height="33" viewBox="0 0 32 33" fill="none" xmlns="http://www.w3.org/2000/svg">
<path d="M21.8482 21.0641C20.8168 21.9794 19.5288 23.1183 17.1934 23.1183H15.7969C14.107 23.1183 12.5699 22.504 11.4696 21.3906C10.3949 20.3026 9.80328 18.8137 9.80328 17.1973V15.2865C9.80328 13.6702 10.3949 12.1812 11.4696 11.0932C12.5699 9.97979 14.107 9.36646 15.7969 9.36646H17.1934C19.5317 9.36646 20.8168 10.5044 21.8482 11.4197C22.9191 12.3633 23.8429 13.188 26.3066 13.188C26.6824 13.1879 27.0575 13.1579 27.4285 13.0983L27.42 13.0766C27.2725 12.7102 27.0994 12.3545 26.902 12.0123L25.2554 9.15982C24.5129 7.87393 23.445 6.80614 22.159 6.06377C20.8731 5.3214 19.4143 4.9306 17.9294 4.93066H14.6354C13.1505 4.9306 11.6918 5.3214 10.4058 6.06377C9.11981 6.80614 8.0519 7.87393 7.30938 9.15982L5.66282 12.0123C4.92055 13.2983 4.52979 14.757 4.52979 16.2419C4.52979 17.7268 4.92055 19.1855 5.66282 20.4715L7.30938 23.324C8.0519 24.6099 9.11981 25.6777 10.4058 26.42C11.6918 27.1624 13.1505 27.5532 14.6354 27.5531H17.9294C19.4143 27.5532 20.8731 27.1624 22.159 26.42C23.445 25.6777 24.5129 24.6099 25.2554 23.324L26.902 20.4762C27.0994 20.134 27.2725 19.7783 27.42 19.4119L27.4285 19.3911C27.0577 19.3295 26.6825 19.298 26.3066 19.2968C23.8429 19.2968 22.9191 20.1167 21.8482 21.065" fill="white"/>
<path d="M17.1929 11.0979H15.7964C13.2241 11.0979 11.5342 12.9351 11.5342 15.2865V17.1972C11.5342 19.5487 13.2241 21.3858 15.7964 21.3858H17.1929C20.9408 21.3858 20.6464 17.5643 26.306 17.5643C26.8422 17.5637 27.3774 17.613 27.9045 17.7115C28.0762 16.7393 28.0762 15.7445 27.9045 14.7722C27.3773 14.8703 26.8422 14.9196 26.306 14.9194C20.6445 14.9194 20.9408 11.0979 17.1929 11.0979Z" fill="white"/>
<path d="M31.1562 19.1081C30.1924 18.4022 29.0809 17.9244 27.9056 17.7107C27.9056 17.7211 27.9056 17.7296 27.9056 17.739C27.8044 18.3024 27.6463 18.8541 27.4338 19.3856C28.4047 19.5359 29.3259 19.9153 30.1211 20.4924C30.1211 20.4999 30.1164 20.5094 30.1136 20.5179C29.0901 23.8319 26.9118 26.6689 23.9745 28.5135C21.0372 30.3581 17.5356 31.088 14.106 30.5704C10.6763 30.0529 7.54604 28.3224 5.28381 25.6931C3.02157 23.0639 1.77746 19.7105 1.77746 16.242C1.77746 12.7735 3.02157 9.42006 5.28381 6.79084C7.54604 4.16163 10.6763 2.43108 14.106 1.91355C17.5356 1.39602 21.0372 2.12585 23.9745 3.97045C26.9118 5.81506 29.0901 8.65207 30.1136 11.9661C30.1136 11.9746 30.1183 11.9841 30.1211 11.9916C29.326 12.5687 28.4048 12.9479 27.4338 13.0975C27.6461 13.6297 27.8041 14.182 27.9056 14.7459C27.905 14.7547 27.905 14.7636 27.9056 14.7724C29.0809 14.559 30.1924 14.0815 31.1562 13.3758C32.0828 12.6899 31.9035 11.9152 31.7629 11.4566C30.6173 7.74086 28.1767 4.55941 24.8845 2.49037C21.5924 0.421334 17.6672 -0.397988 13.8223 0.181291C9.97731 0.76057 6.46776 2.70001 3.93135 5.64717C1.39494 8.59434 0 12.3537 0 16.242C0 20.1303 1.39494 23.8896 3.93135 26.8368C6.46776 29.784 9.97731 31.7234 13.8223 32.3027C17.6672 32.882 21.5924 32.0627 24.8845 29.9936C28.1767 27.9246 30.6173 24.7431 31.7629 21.0274C31.9035 20.5688 32.0828 19.7941 31.1562 19.1081Z" fill="white"/>
<path d="M27.429 13.0973C27.0581 13.1589 26.6829 13.1904 26.307 13.1916C23.8433 13.1916 22.9196 12.3716 21.8495 11.4233C20.8173 10.508 19.5321 9.36914 17.1939 9.36914H15.7974C14.1065 9.36914 12.5703 9.98342 11.4701 11.0968C10.3953 12.1848 9.80371 13.6738 9.80371 15.2901V17.2009C9.80371 18.8173 10.3953 20.3062 11.4701 21.3942C12.5703 22.5076 14.1065 23.121 15.7974 23.121H17.1939C19.5321 23.121 20.8173 21.983 21.8495 21.0677C22.9196 20.1241 23.8433 19.2994 26.307 19.2994C26.6828 19.2995 27.058 19.3295 27.429 19.3891C27.6419 18.8577 27.8 18.306 27.9008 17.7425C27.9013 17.7331 27.9013 17.7236 27.9008 17.7142C27.3736 17.6165 26.8385 17.5675 26.3023 17.568C20.6408 17.568 20.9371 21.3904 17.1892 21.3904H15.7927C13.2204 21.3904 11.5305 19.5523 11.5305 17.2009V15.2864C11.5305 12.935 13.2204 11.0978 15.7927 11.0978H17.1892C20.9371 11.0978 20.6427 14.9184 26.3023 14.9184C26.8385 14.9193 27.3736 14.8703 27.9008 14.7721C27.9008 14.7636 27.9008 14.7551 27.9008 14.7457C27.7993 14.1817 27.6413 13.6295 27.429 13.0973Z" fill="#61396D"/>
<path d="M27.429 13.0973C27.0581 13.1589 26.6829 13.1904 26.307 13.1916C23.8433 13.1916 22.9196 12.3716 21.8495 11.4233C20.8173 10.508 19.5321 9.36914 17.1939 9.36914H15.7974C14.1065 9.36914 12.5703 9.98342 11.4701 11.0968C10.3953 12.1848 9.80371 13.6738 9.80371 15.2901V17.2009C9.80371 18.8173 10.3953 20.3062 11.4701 21.3942C12.5703 22.5076 14.1065 23.121 15.7974 23.121H17.1939C19.5321 23.121 20.8173 21.983 21.8495 21.0677C22.9196 20.1241 23.8433 19.2994 26.307 19.2994C26.6828 19.2995 27.058 19.3295 27.429 19.3891C27.6419 18.8577 27.8 18.306 27.9008 17.7425C27.9013 17.7331 27.9013 17.7236 27.9008 17.7142C27.3736 17.6165 26.8385 17.5675 26.3023 17.568C20.6408 17.568 20.9371 21.3904 17.1892 21.3904H15.7927C13.2204 21.3904 11.5305 19.5523 11.5305 17.2009V15.2864C11.5305 12.935 13.2204 11.0978 15.7927 11.0978H17.1892C20.9371 11.0978 20.6427 14.9184 26.3023 14.9184C26.8385 14.9193 27.3736 14.8703 27.9008 14.7721C27.9008 14.7636 27.9008 14.7551 27.9008 14.7457C27.7993 14.1817 27.6413 13.6295 27.429 13.0973Z" fill="#61396D"/>
</svg>
