<svg width="90" height="32" viewBox="0 0 90 32" fill="none" xmlns="http://www.w3.org/2000/svg">
<path d="M18.0773 11.1336C14.8235 11.1336 12.2811 13.6037 12.2811 16.9103C12.2811 20.217 14.7593 22.6659 18.0773 22.6659C21.3954 22.6659 23.9166 20.1747 23.9166 16.8892C23.9166 13.6248 21.4385 11.1336 18.0773 11.1336ZM18.0993 20.2829C16.2463 20.2829 14.8885 18.8438 14.8885 16.9112C14.8885 14.9566 16.2244 13.5183 18.0773 13.5183C19.9522 13.5183 21.3092 14.9785 21.3092 16.9112C21.3092 18.8438 19.9522 20.2829 18.0993 20.2829ZM24.6273 13.6468H26.2435V22.4521H28.829V11.3483H24.6273V13.6468ZM5.77427 13.5175C7.13207 13.5175 8.20935 14.3549 8.61832 15.6005H11.355C10.8591 12.9378 8.66142 11.1336 5.79622 11.1336C2.5424 11.1336 0 13.6037 0 16.9112C0 20.2186 2.47817 22.6667 5.79622 22.6667C8.59717 22.6667 10.8379 20.8626 11.3339 18.1779H8.61832C8.2305 19.4235 7.1532 20.2829 5.79542 20.2829C3.92052 20.2829 2.60662 18.8438 2.60662 16.9112C2.60745 14.9566 3.9002 13.5175 5.77427 13.5175ZM73.7532 15.8371L71.8572 15.5582C70.9525 15.4298 70.306 15.129 70.306 14.42C70.306 13.6468 71.1467 13.2606 72.2882 13.2606C73.538 13.2606 74.3355 13.7972 74.5077 14.6777H77.0072C76.7267 12.4443 75.003 11.1344 72.3532 11.1344C69.6165 11.1344 67.8067 12.5305 67.8067 14.5062C67.8067 16.3957 68.992 17.4917 71.3832 17.8348L73.2792 18.1137C74.2062 18.2421 74.7232 18.608 74.7232 19.295C74.7232 20.1756 73.8185 20.5406 72.5687 20.5406C71.0385 20.5406 70.1767 19.9178 70.0475 18.9731H67.505C67.7425 21.1423 69.4442 22.6667 72.5467 22.6667C75.3697 22.6667 77.2437 21.3781 77.2437 19.1657C77.2437 17.19 75.8867 16.1591 73.7532 15.8371ZM27.5362 6.77407C26.5882 6.77407 25.877 7.4611 25.877 8.40586C25.877 9.35062 26.5875 10.0376 27.5362 10.0376C28.4842 10.0376 29.1957 9.35062 29.1957 8.40586C29.1957 7.4611 28.4842 6.77407 27.5362 6.77407ZM65.4797 15.1501C65.4797 12.7451 64.0147 11.1344 60.912 11.1344C57.9817 11.1344 56.3442 12.6166 56.0207 14.8932H58.585C58.7142 14.0126 59.4037 13.2825 60.869 13.2825C62.1837 13.2825 62.83 13.8622 62.83 14.5712C62.83 15.4948 61.6445 15.7306 60.1795 15.881C58.1972 16.0957 55.741 16.7827 55.741 19.3601C55.741 21.3577 57.228 22.6456 59.5982 22.6456C61.451 22.6456 62.6145 21.8724 63.1967 20.6479C63.283 21.7431 64.1017 22.4521 65.244 22.4521H66.7522V20.1544H65.4805V15.1501H65.4797ZM62.9372 17.9421C62.9372 19.4243 61.6445 20.5195 60.0712 20.5195C59.1015 20.5195 58.2827 20.1113 58.2827 19.2527C58.2827 18.1576 59.5972 17.8567 60.804 17.7283C61.9675 17.621 62.6137 17.3632 62.9372 16.8689V17.9421ZM49.2122 11.1336C47.7682 11.1336 46.5617 11.7353 45.7 12.7443V6.66675H43.1145V22.4521H45.6567V20.9919C46.5185 22.0439 47.7472 22.6667 49.2122 22.6667C52.3147 22.6667 54.6637 20.2186 54.6637 16.9112C54.6637 13.6037 52.2717 11.1336 49.2122 11.1336ZM48.8245 20.2829C46.9715 20.2829 45.6137 18.8438 45.6137 16.9112C45.6137 14.9785 46.9927 13.5183 48.8455 13.5183C50.7205 13.5183 52.0342 14.9574 52.0342 16.9112C52.0342 18.8438 50.6772 20.2829 48.8245 20.2829ZM36.9302 11.1336C35.2497 11.1336 34.1505 11.8207 33.5042 12.7874V11.3483H30.9397V22.4513H33.5252V16.4168C33.5252 14.72 34.6025 13.5175 36.197 13.5175C37.684 13.5175 38.61 14.5696 38.61 16.0949V22.4521H41.1955V15.9022C41.1965 13.1093 39.7532 11.1336 36.9302 11.1336ZM89.5687 16.5461C89.5687 13.3679 87.2417 11.1344 84.1172 11.1344C80.7992 11.1344 78.3642 13.6256 78.3642 16.9112C78.3642 20.3691 80.9715 22.6667 84.1605 22.6667C86.854 22.6667 88.9655 21.0772 89.5037 18.8226H86.81C86.4222 19.8105 85.4742 20.3691 84.2027 20.3691C82.5432 20.3691 81.2935 19.3381 81.0137 17.534H89.568V16.5461H89.5687ZM81.165 15.6867C81.575 14.1403 82.7382 13.389 84.0742 13.389C85.5392 13.389 86.6597 14.2265 86.9182 15.6867H81.165Z" fill="white"/>
</svg>
