<svg width="90" height="32" viewBox="0 0 90 32" fill="none" xmlns="http://www.w3.org/2000/svg">
<path d="M0 1.33325H19.4284V11.0475H9.71422L0 1.33325ZM0 11.0475H9.71422L19.4284 20.7617H0V11.0475ZM0 20.7617H9.71422V30.4759L0 20.7617Z" fill="white"/>
<path d="M30.3906 8.99683H38.244V11.4924H33.3631V14.9604H38.244V17.4008H33.3631V21.8413H30.3906V8.99683ZM39.8586 12.9968H42.6662V14.8502C42.8128 14.2133 43.1129 13.7244 43.5653 13.3822C44.0293 13.027 44.5444 12.8502 45.1066 12.8502C45.4004 12.8502 45.6453 12.875 45.8404 12.9235V15.5293C45.5604 15.4955 45.2786 15.4773 44.9964 15.4742C44.2257 15.4742 43.6453 15.7244 43.2533 16.2262C42.8626 16.7155 42.6662 17.4493 42.6662 18.4284V21.8413H39.86V12.9968H39.8586ZM50.2724 22.0799C49.4164 22.0799 48.6697 21.8777 48.0337 21.4742C47.4097 21.0706 46.9137 20.4977 46.6026 19.8226C46.2724 19.1137 46.1062 18.3115 46.1062 17.4191C46.1062 16.5382 46.2786 15.7426 46.6208 15.0337C46.9417 14.3488 47.4511 13.7697 48.0888 13.3639C48.7364 12.9604 49.4768 12.7582 50.3093 12.7582C50.9328 12.7582 51.4902 12.8933 51.9791 13.1622C52.468 13.4319 52.8351 13.799 53.08 14.263V12.9968H55.8688V21.8413H53.08V20.5933C52.8351 21.0337 52.456 21.3942 51.9422 21.6759C51.4284 21.9484 50.8542 22.087 50.2724 22.0799ZM51.08 19.7493C51.7524 19.7493 52.2724 19.5293 52.6395 19.0888C53.0066 18.6484 53.1902 18.0915 53.1902 17.4191C53.1902 16.7586 53.0066 16.2079 52.6395 15.7675C52.2724 15.327 51.7524 15.107 51.08 15.107C50.4431 15.107 49.9302 15.3208 49.5386 15.7493C49.1595 16.1777 48.9697 16.7337 48.9697 17.4191C48.9697 18.1044 49.1595 18.6666 49.5386 19.107C49.9302 19.5355 50.444 19.7493 51.08 19.7493ZM57.8324 12.9968H60.64V14.2813C60.8364 13.8279 61.1537 13.4608 61.5937 13.1804C62.0471 12.8999 62.5728 12.7582 63.172 12.7582C64.5666 12.7582 65.4906 13.3022 65.9426 14.3915C66.1915 13.8977 66.5808 13.4893 67.0622 13.2173C67.5768 12.9075 68.168 12.7488 68.7684 12.7582C70.8604 12.7582 71.9062 13.9564 71.9062 16.3546V21.8413H69.0804V16.8684C69.0804 16.2697 68.9702 15.8293 68.7502 15.5475C68.5297 15.2666 68.1995 15.1253 67.7591 15.1253C67.2822 15.1253 66.9151 15.2906 66.6582 15.6208C66.4013 15.939 66.2728 16.495 66.2728 17.2906V21.8413H63.4471V16.8502C63.4471 16.251 63.3373 15.8164 63.1168 15.5475C62.9097 15.2666 62.5848 15.1253 62.1453 15.1253C61.6555 15.1253 61.2822 15.2906 61.0253 15.6208C60.7684 15.939 60.64 16.495 60.64 17.2906V21.8413H57.8333V12.9968H57.8324ZM82.4528 16.9604C82.4528 17.339 82.428 17.7493 82.3782 18.1897H75.8471C75.872 18.7648 76.0671 19.2044 76.4342 19.5111C76.8013 19.8164 77.2977 19.9697 77.9204 19.9697C78.7893 19.9697 79.34 19.7062 79.572 19.1804H82.3244C82.1893 20.0493 81.7124 20.7519 80.8928 21.2906C80.0857 21.8164 79.0946 22.0799 77.9204 22.0799C76.404 22.0799 75.2111 21.6697 74.3422 20.8502C73.4862 20.0302 73.0577 18.8871 73.0577 17.4191C73.0577 16.4648 73.2533 15.639 73.6448 14.9417C74.0231 14.2453 74.6062 13.6817 75.3146 13.327C76.0368 12.9484 76.8746 12.7582 77.8297 12.7582C78.7342 12.7582 79.5351 12.9355 80.2324 13.2906C80.9417 13.6457 81.4866 14.1408 81.8653 14.7768C82.2573 15.4137 82.4528 16.1413 82.4528 16.9604ZM79.6808 16.4466C79.6688 15.8595 79.504 15.4124 79.1853 15.107C78.868 14.8017 78.4084 14.6484 77.8093 14.6484C77.2102 14.6484 76.7333 14.8133 76.3782 15.1439C76.036 15.4622 75.8586 15.8959 75.8457 16.4466H79.6808ZM83.6906 12.9968H86.4982V14.8502C86.6449 14.2133 86.9448 13.7244 87.3973 13.3822C87.8364 13.0364 88.3795 12.8488 88.9386 12.8502C89.232 12.8502 89.4773 12.875 89.6724 12.9235V15.5293C89.3924 15.4955 89.1106 15.4773 88.8284 15.4742C88.0577 15.4742 87.4773 15.7244 87.0853 16.2262C86.6933 16.7155 86.4982 17.4493 86.4982 18.4284V21.8413H83.6906V12.9968Z" fill="white"/>
</svg>
