<svg width="27" height="27" viewBox="0 0 27 27" fill="none" xmlns="http://www.w3.org/2000/svg">
<path d="M26.7419 11.9079H18.5955L25.6503 7.85587L24.2513 5.44413L17.1956 9.4962L21.2679 2.47823L18.8441 1.08617L14.7709 8.10236V0H11.971V8.10325L7.89782 1.08617L5.47313 2.47823L9.54546 9.49443L2.49152 5.44413L1.0916 7.85587L8.14643 11.9079H0V14.693H8.14554L1.0916 18.745L2.49062 21.1568L9.54635 17.1047L5.47313 24.1227L7.89693 25.5147L11.971 18.4976V26.6H14.7709V18.3239L18.9189 25.4704L21.1921 24.1652L17.0432 17.0169L24.2495 21.1559L25.6494 18.7441L18.5955 14.6921H26.741V11.9079H26.7419ZM13.371 17.0861C12.8712 17.0861 12.3762 16.9882 11.9145 16.798C11.4527 16.6077 11.0331 16.3288 10.6797 15.9772C10.3262 15.6256 10.0458 15.2082 9.8545 14.7487C9.66318 14.2893 9.56468 13.7969 9.56462 13.2996C9.56456 12.8022 9.66295 12.3098 9.85416 11.8503C10.0454 11.3908 10.3257 10.9733 10.679 10.6216C11.0324 10.27 11.4519 9.99096 11.9136 9.80059C12.3754 9.61023 12.8703 9.51222 13.3701 9.51216C14.3794 9.51204 15.3475 9.91091 16.0614 10.621C16.7752 11.3311 17.1763 12.2943 17.1764 13.2987C17.1765 14.303 16.7757 15.2663 16.062 15.9766C15.3483 16.6869 14.3803 17.0859 13.371 17.0861Z" fill="#625DF5"/>
</svg>
