<svg width="78" height="32" viewBox="0 0 78 32" fill="none" xmlns="http://www.w3.org/2000/svg">
<path d="M23.4578 13.7793H16.3118L22.5003 10.2249L21.2731 8.1093L15.0838 11.6637L18.656 5.50763L16.5299 4.28652L12.9569 10.4411V3.33374H10.5009V10.4419L6.92791 4.28652L4.801 5.50763L8.37321 11.6622L2.18554 8.1093L0.957541 10.2249L7.146 13.7793H0V16.2223H7.14521L0.957541 19.7767L2.18476 21.8923L8.37399 18.3379L4.801 24.494L6.92713 25.7151L10.5009 19.5597V26.6671H12.9569V19.4073L16.5956 25.6762L18.5896 24.5313L14.9502 18.2609L21.2715 21.8915L22.4995 19.776L16.3118 16.2215H23.457V13.7793H23.4578ZM11.7289 18.3215C11.2905 18.3216 10.8564 18.2357 10.4513 18.0688C10.0462 17.9019 9.67816 17.6573 9.36812 17.3488C9.05807 17.0404 8.81212 16.6742 8.64429 16.2712C8.47647 15.8682 8.39007 15.4363 8.39002 15C8.38997 14.5638 8.47627 14.1318 8.644 13.7288C8.81172 13.3257 9.05759 12.9595 9.36756 12.651C9.67754 12.3425 10.0455 12.0977 10.4506 11.9308C10.8556 11.7638 11.2897 11.6778 11.7281 11.6777C12.6135 11.6776 13.4627 12.0275 14.0889 12.6504C14.7151 13.2733 15.0669 14.1182 15.067 14.9992C15.0671 15.8803 14.7155 16.7252 14.0895 17.3483C13.4634 17.9713 12.6143 18.3214 11.7289 18.3215Z" fill="white"/>
<path d="M29.7888 23.5347V6.46558H32.9374V23.5347H29.7888ZM59.9869 11.9349H62.9932V13.3505C63.6326 12.2188 65.1248 11.6051 66.4029 11.6051C67.9897 11.6051 69.2677 12.2896 69.8594 13.5379C70.7818 12.1224 72.0137 11.6051 73.5528 11.6051C75.7071 11.6051 77.766 12.9017 77.766 16.0136V23.5347H74.7128V16.6506C74.7128 15.4007 74.0968 14.4572 72.6523 14.4572C71.3024 14.4572 70.4972 15.4956 70.4972 16.7455V23.5355H67.3737V16.6506C67.3737 15.4007 66.7343 14.4572 65.3132 14.4572C63.9398 14.4572 63.1347 15.4722 63.1347 16.7455V23.5355H59.9869V11.9349ZM40.0529 23.8707C36.5057 23.8707 33.9371 21.2519 33.9371 17.7348C33.9371 14.2737 36.4979 11.5935 40.0529 11.5935C43.6251 11.5935 46.1686 14.2986 46.1686 17.7348C46.1686 21.227 43.5985 23.8707 40.0529 23.8707ZM40.0529 14.4324C39.173 14.4336 38.3296 14.7821 37.7077 15.4013C37.0857 16.0206 36.7361 16.8601 36.7355 17.7356C36.7361 18.611 37.0857 19.4505 37.7077 20.0698C38.3296 20.6891 39.173 21.0376 40.0529 21.0388C40.9326 21.0374 41.7758 20.6888 42.3976 20.0695C43.0193 19.4503 43.3689 18.6109 43.3695 17.7356C43.3689 16.8602 43.0193 16.0209 42.3976 15.4016C41.7758 14.7824 40.9326 14.4338 40.0529 14.4324ZM52.8933 23.8707C49.3461 23.8707 46.7776 21.2519 46.7776 17.7348C46.7776 14.2737 49.3383 11.5935 52.8933 11.5935C56.4655 11.5935 59.0091 14.2986 59.0091 17.7348C59.0091 21.227 56.4374 23.8707 52.8933 23.8707ZM52.8933 14.3927C52.0034 14.3941 51.1503 14.7467 50.5213 15.3731C49.8922 15.9994 49.5385 16.8485 49.5376 17.734C49.5385 18.6195 49.8922 19.4686 50.5213 20.095C51.1503 20.7213 52.0034 21.0739 52.8933 21.0754C53.7833 21.0739 54.6363 20.7213 55.2654 20.095C55.8945 19.4686 56.2482 18.6195 56.249 17.734C56.2482 16.8485 55.8945 15.9994 55.2654 15.3731C54.6363 14.7467 53.7833 14.3941 52.8933 14.3927Z" fill="white"/>
</svg>
