<svg width="36" height="35" viewBox="0 0 36 35" fill="none" xmlns="http://www.w3.org/2000/svg">
<path d="M35.1867 15.6683H24.4677L33.7504 10.3367L31.9096 7.16333L22.6257 12.495L27.9841 3.26083L24.7949 1.42917L19.4354 10.661V0H15.7514V10.6622L10.3919 1.42917L7.20149 3.26083L12.5598 12.4927L3.27831 7.16333L1.43631 10.3367L10.719 15.6683H0V19.3328H10.7178L1.43631 24.6645L3.27714 27.8378L12.561 22.5062L7.20149 31.7403L10.3907 33.572L15.7514 24.339V35H19.4354V24.1103L24.8933 33.5137L27.8844 31.7963L22.4252 22.3907L31.9072 27.8367L33.7492 24.6633L24.4677 19.3317H35.1855V15.6683H35.1867ZM17.5934 22.4817C16.9357 22.4817 16.2845 22.3529 15.6769 22.1026C15.0693 21.8523 14.5172 21.4853 14.0522 21.0226C13.5871 20.56 13.2182 20.0107 12.9664 19.4062C12.7147 18.8017 12.5851 18.1538 12.585 17.4994C12.5849 16.8451 12.7144 16.1971 12.966 15.5925C13.2176 14.9879 13.5864 14.4386 14.0513 13.9759C14.5163 13.5131 15.0683 13.146 15.6758 12.8955C16.2834 12.645 16.9346 12.5161 17.5922 12.516C18.9203 12.5158 20.1941 13.0407 21.1334 13.975C22.0726 14.9094 22.6004 16.1767 22.6005 17.4982C22.6007 18.8198 22.0732 20.0872 21.1342 21.0218C20.1952 21.9564 18.9215 22.4815 17.5934 22.4817Z" fill="white" fill-opacity="0.960784"/>
</svg>
