<svg width="33" height="35" viewBox="0 0 33 35" fill="none" xmlns="http://www.w3.org/2000/svg">
<path fill-rule="evenodd" clip-rule="evenodd" d="M24.822 16.5385C25.0777 16.5082 25.3225 16.5066 25.5478 16.5385C25.6782 16.2399 25.7003 15.7254 25.5832 15.165C25.4093 14.332 25.1734 13.828 24.6862 13.9065C24.199 13.9851 24.1811 14.5886 24.3554 15.4212C24.4535 15.8899 24.6278 16.2904 24.822 16.5385Z" fill="white"/>
<path fill-rule="evenodd" clip-rule="evenodd" d="M20.6421 17.1977C20.9904 17.3505 21.2048 17.452 21.2885 17.3634C21.3426 17.3082 21.3262 17.2028 21.243 17.0671C21.071 16.7867 20.7172 16.502 20.3417 16.3422C19.5743 16.012 18.6586 16.1217 17.9523 16.6288C17.7192 16.7995 17.4982 17.0359 17.5297 17.1794C17.5398 17.2257 17.5748 17.2607 17.6565 17.2724C17.8488 17.2942 18.5205 16.9551 19.2945 16.9076C19.8405 16.8742 20.2934 17.0449 20.6421 17.1977Z" fill="white"/>
<path fill-rule="evenodd" clip-rule="evenodd" d="M19.9426 17.5975C19.4884 17.6691 19.2382 17.8188 19.0775 17.9576C18.9405 18.0774 18.8557 18.21 18.8565 18.303C18.8568 18.3473 18.8759 18.373 18.8911 18.3858C18.9117 18.4041 18.9362 18.4142 18.9658 18.4142C19.0682 18.4142 19.2981 18.322 19.2981 18.322C19.9297 18.0961 20.3465 18.1237 20.7594 18.1704C20.9875 18.196 21.0956 18.21 21.1454 18.1319C21.1602 18.1093 21.1781 18.0607 21.1326 17.9868C21.0264 17.8145 20.5676 17.5232 19.9426 17.5975Z" fill="white"/>
<path fill-rule="evenodd" clip-rule="evenodd" d="M23.4115 19.0645C23.7197 19.2158 24.0591 19.1563 24.1696 18.9319C24.2801 18.7075 24.1198 18.4026 23.8116 18.2514C23.5034 18.1001 23.164 18.1596 23.0535 18.384C22.943 18.6087 23.1033 18.9132 23.4115 19.0645Z" fill="white"/>
<path fill-rule="evenodd" clip-rule="evenodd" d="M25.3934 17.3345C25.1431 17.3302 24.9353 17.6047 24.9295 17.9481C24.9237 18.2915 25.1221 18.5727 25.3724 18.577C25.6226 18.5812 25.8304 18.3067 25.8362 17.9633C25.8421 17.6203 25.6436 17.3387 25.3934 17.3345Z" fill="white"/>
<path fill-rule="evenodd" clip-rule="evenodd" d="M8.5743 23.5214C8.51203 23.4433 8.40969 23.467 8.31045 23.4903C8.24119 23.5067 8.16296 23.5246 8.07696 23.5234C7.89289 23.5199 7.73684 23.4413 7.64928 23.3068C7.53526 23.1318 7.54188 22.8708 7.66757 22.5722L7.72634 22.4384C7.92714 21.9881 8.26298 21.2348 7.88589 20.5169C7.60181 19.9764 7.13872 19.64 6.58184 19.5692C6.04715 19.5015 5.49689 19.6995 5.14587 20.0864C4.59211 20.697 4.50533 21.528 4.61235 21.8216C4.65165 21.929 4.71314 21.9589 4.7575 21.9651C4.85168 21.9776 4.99099 21.9091 5.07816 21.6746L5.10307 21.5984C5.14198 21.4743 5.21436 21.2433 5.33305 21.0582C5.47626 20.835 5.69886 20.6814 5.96037 20.625C6.22655 20.5679 6.49896 20.6188 6.727 20.7681C7.11498 21.0217 7.26442 21.4969 7.09864 21.95C7.01302 22.1845 6.8737 22.6328 6.90445 23.0011C6.96671 23.7466 7.42552 24.0461 7.83763 24.0779C8.23846 24.0931 8.51865 23.8679 8.58947 23.7038C8.63111 23.6066 8.59609 23.5475 8.57313 23.5222" fill="white"/>
<path fill-rule="evenodd" clip-rule="evenodd" d="M12.3867 9.82885C13.6942 8.31919 15.3034 7.0067 16.7452 6.26976C16.795 6.2441 16.8479 6.29815 16.821 6.34715C16.7066 6.55443 16.486 6.99814 16.4163 7.33453C16.4054 7.38703 16.4626 7.42631 16.507 7.39637C17.404 6.78543 18.9641 6.13054 20.3327 6.04654C20.3915 6.04304 20.4199 6.1181 20.3732 6.15426C20.165 6.31371 19.9374 6.5346 19.7712 6.75782C19.7428 6.79593 19.7696 6.85037 19.8171 6.85076C20.7779 6.85776 22.1326 7.19376 23.0155 7.68881C23.0751 7.72226 23.0327 7.83775 22.9657 7.82259C21.6298 7.51653 19.4431 7.28437 17.1713 7.83815C15.1434 8.33242 13.5954 9.0958 12.4664 9.91635C12.4092 9.95796 12.3404 9.88213 12.3867 9.82885ZM24.2892 25.0915C24.3282 25.0752 24.3546 25.0312 24.3503 24.9873C24.3449 24.9332 24.2966 24.8939 24.2425 24.8994C24.2425 24.8994 21.4527 25.312 18.817 24.3479C19.1042 23.4154 19.8673 23.7522 21.0211 23.8451C23.1008 23.9692 24.9648 23.6655 26.3424 23.2703C27.5359 22.9281 29.1038 22.253 30.3215 21.2925C30.732 22.1939 30.8772 23.1863 30.8772 23.1863C30.8772 23.1863 31.1951 23.1296 31.4609 23.2929C31.7119 23.4473 31.896 23.7681 31.7703 24.598C31.5142 26.1481 30.855 27.4065 29.7467 28.5643C29.0719 29.2899 28.2531 29.9207 27.3161 30.3796C26.8183 30.6409 26.2887 30.8669 25.7287 31.0492C21.5508 32.4131 17.274 30.9139 15.8956 27.6947C15.7855 27.4528 15.6925 27.1993 15.6193 26.9344C15.0321 24.8131 15.5306 22.2678 17.0896 20.6656C17.1857 20.5637 17.2837 20.4427 17.2837 20.2915C17.2837 20.1651 17.2032 20.0317 17.1335 19.9368C16.5879 19.1462 14.6986 17.7991 15.078 15.192C15.3504 13.3191 16.9895 12 18.5177 12.0782L18.9049 12.1003C19.5673 12.1396 20.1448 12.2244 20.69 12.2473C21.6025 12.287 22.4229 12.1544 23.395 11.3451C23.7226 11.0721 23.9857 10.8353 24.4305 10.7602C24.4772 10.7521 24.5936 10.7105 24.8259 10.7214C25.0633 10.7342 25.289 10.7991 25.4917 10.9341C26.2708 11.4521 26.3813 12.707 26.4218 13.6248C26.4447 14.1486 26.5082 15.4164 26.53 15.7804C26.5794 16.6126 26.7985 16.7297 27.2413 16.8755C27.4904 16.9575 27.7215 17.0186 28.0624 17.1143C29.0937 17.4036 29.7051 17.6972 30.0907 18.0744C30.3207 18.3101 30.4277 18.5605 30.4608 18.7993C30.5822 19.686 29.772 20.7811 27.6266 21.7762C25.2816 22.864 22.4365 23.1393 20.4709 22.9203L19.7821 22.8426C18.2099 22.631 17.3129 24.6614 18.2566 26.0528C18.8649 26.9496 20.5215 27.5329 22.1789 27.5333C25.9789 27.5337 28.8999 25.9121 29.9864 24.5117L30.0732 24.388C30.1269 24.3075 30.0825 24.2632 30.016 24.3087C29.1283 24.9157 25.1855 27.3256 20.9678 26.6004C20.9678 26.6004 20.4553 26.516 19.9876 26.3344C19.6159 26.1897 18.8376 25.8319 18.7431 25.0343C22.1466 26.0863 24.2892 25.0915 24.2892 25.0915ZM5.59481 17.0085C4.41101 17.2383 3.3677 17.9088 2.72988 18.8351C2.34851 18.5174 1.63831 17.9021 1.51261 17.6622C0.494204 15.7294 2.62403 11.972 4.11214 9.84985C7.78962 4.60571 13.5491 0.636347 16.2151 1.35657C16.6486 1.47906 18.0842 3.14233 18.0842 3.14233C18.0842 3.14233 15.4189 4.6201 12.9474 6.68004C9.61708 9.24241 7.10199 12.9668 5.59481 17.0085ZM7.58376 25.8771C7.40475 25.9078 7.22185 25.9198 7.03739 25.9152C5.25625 25.8673 3.33267 24.2651 3.1416 22.365C2.93029 20.2646 4.00435 18.6484 5.90574 18.265C6.133 18.2191 6.40774 18.1926 6.70389 18.2082C7.76938 18.2665 9.33922 19.084 9.69763 21.4033C10.0152 23.4574 9.51083 25.5488 7.58376 25.8771ZM31.7096 22.1577C31.6944 22.1037 31.5948 21.7409 31.4582 21.3034C31.3216 20.8655 31.1803 20.5579 31.1803 20.5579C31.7283 19.7385 31.738 19.0054 31.6648 18.5905C31.587 18.076 31.3726 17.6377 30.9406 17.1843C30.5087 16.7312 29.6249 16.2669 28.3831 15.9184L27.7317 15.7376C27.7286 15.7108 27.6974 14.2027 27.6694 13.5552C27.6488 13.0869 27.6087 12.3562 27.3818 11.6368C27.1114 10.6626 26.6405 9.81019 26.0525 9.26497C27.6752 7.5842 28.6882 5.73232 28.6855 4.14411C28.6808 1.0894 24.9267 0.16502 20.3001 2.07951L19.3198 2.49523C19.3155 2.49095 17.5476 0.757683 17.5211 0.73435C12.2462 -3.86346 -4.24605 14.4558 1.02656 18.9051L2.17884 19.8808C1.87997 20.6547 1.76245 21.5413 1.85857 22.4945C1.98154 23.7191 2.61352 24.8928 3.63816 25.7997C4.61065 26.6607 5.88939 27.2059 7.13001 27.2047C9.182 31.9301 13.8705 34.8288 19.3676 34.9922C25.2645 35.1672 30.2145 32.4022 32.2886 27.4353C32.4244 27.0869 33 25.5162 33 24.1294C33 22.736 32.2116 22.1577 31.7096 22.1577Z" fill="white"/>
</svg>
