<svg width="26" height="27" viewBox="0 0 26 27" fill="none" xmlns="http://www.w3.org/2000/svg">
<path fill-rule="evenodd" clip-rule="evenodd" d="M18.8647 12.5693C19.059 12.5462 19.2451 12.545 19.4163 12.5693C19.5154 12.3423 19.5323 11.9513 19.4432 11.5254C19.311 10.8923 19.1318 10.5093 18.7615 10.569C18.3912 10.6287 18.3776 11.0874 18.5101 11.7201C18.5847 12.0763 18.7172 12.3807 18.8647 12.5693Z" fill="black"/>
<path fill-rule="evenodd" clip-rule="evenodd" d="M15.688 13.0703C15.9527 13.1864 16.1157 13.2636 16.1793 13.1962C16.2204 13.1542 16.2079 13.0741 16.1446 12.971C16.0139 12.7579 15.7451 12.5415 15.4597 12.42C14.8765 12.1691 14.1805 12.2525 13.6437 12.6379C13.4666 12.7676 13.2986 12.9473 13.3226 13.0564C13.3302 13.0915 13.3569 13.1181 13.419 13.127C13.5651 13.1436 14.0756 12.8858 14.6638 12.8498C15.0788 12.8244 15.423 12.9541 15.688 13.0703Z" fill="black"/>
<path fill-rule="evenodd" clip-rule="evenodd" d="M15.1564 13.3741C14.8112 13.4285 14.621 13.5423 14.4989 13.6478C14.3948 13.7388 14.3303 13.8396 14.3309 13.9103C14.3312 13.9439 14.3457 13.9635 14.3572 13.9732C14.3729 13.9871 14.3915 13.9948 14.414 13.9948C14.4918 13.9948 14.6666 13.9247 14.6666 13.9247C15.1466 13.753 15.4634 13.774 15.7772 13.8095C15.9505 13.829 16.0327 13.8396 16.0705 13.7802C16.0818 13.7631 16.0954 13.7261 16.0608 13.67C15.98 13.539 15.6313 13.3177 15.1564 13.3741Z" fill="black"/>
<path fill-rule="evenodd" clip-rule="evenodd" d="M17.7928 14.489C18.027 14.604 18.2849 14.5588 18.3689 14.3882C18.4529 14.2177 18.331 13.986 18.0968 13.871C17.8626 13.7561 17.6047 13.8013 17.5207 13.9718C17.4367 14.1426 17.5585 14.3741 17.7928 14.489Z" fill="black"/>
<path fill-rule="evenodd" clip-rule="evenodd" d="M19.299 13.1742C19.1088 13.1709 18.9509 13.3796 18.9464 13.6406C18.942 13.9016 19.0928 14.1152 19.283 14.1185C19.4732 14.1217 19.6311 13.9131 19.6355 13.6521C19.64 13.3914 19.4891 13.1774 19.299 13.1742Z" fill="black"/>
<path fill-rule="evenodd" clip-rule="evenodd" d="M6.51647 17.8763C6.46914 17.8169 6.39136 17.8349 6.31595 17.8527C6.2633 17.8651 6.20385 17.8787 6.13849 17.8778C5.9986 17.8751 5.88 17.8154 5.81346 17.7132C5.7268 17.5802 5.73183 17.3818 5.82736 17.1549L5.87201 17.0532C6.02462 16.7109 6.27986 16.1384 5.99328 15.5928C5.77737 15.182 5.42543 14.9264 5.0022 14.8726C4.59583 14.8212 4.17764 14.9716 3.91086 15.2657C3.49001 15.7297 3.42405 16.3613 3.50538 16.5844C3.53525 16.666 3.58198 16.6888 3.6157 16.6935C3.68727 16.7029 3.79315 16.6509 3.8594 16.4727L3.87833 16.4148C3.90791 16.3205 3.96292 16.1449 4.05312 16.0043C4.16196 15.8346 4.33113 15.7179 4.52988 15.675C4.73218 15.6316 4.93921 15.6703 5.11252 15.7838C5.40739 15.9765 5.52096 16.3376 5.39496 16.682C5.3299 16.8602 5.22402 17.201 5.24738 17.4808C5.2947 18.0474 5.64339 18.275 5.9566 18.2992C6.26123 18.3108 6.47417 18.1396 6.528 18.0149C6.55965 17.941 6.53303 17.8961 6.51558 17.8769" fill="black"/>
<path fill-rule="evenodd" clip-rule="evenodd" d="M9.41387 7.46993C10.4076 6.32259 11.6305 5.32509 12.7263 4.76502C12.7642 4.74551 12.8044 4.7866 12.784 4.82384C12.697 4.98137 12.5293 5.31859 12.4764 5.57424C12.4681 5.61414 12.5116 5.644 12.5453 5.62124C13.227 5.15693 14.4127 4.65921 15.4529 4.59537C15.4975 4.59271 15.5191 4.64976 15.4836 4.67724C15.3254 4.79842 15.1524 4.96629 15.0261 5.13594C15.0045 5.16491 15.0249 5.20628 15.061 5.20658C15.7912 5.2119 16.8207 5.46726 17.4918 5.8435C17.5371 5.86892 17.5048 5.95669 17.454 5.94517C16.4386 5.71256 14.7768 5.53612 13.0502 5.95699C11.509 6.33264 10.3325 6.91281 9.47449 7.53643C9.43102 7.56805 9.37867 7.51042 9.41387 7.46993ZM18.4598 19.0695C18.4894 19.0571 18.5095 19.0237 18.5063 18.9903C18.5021 18.9492 18.4654 18.9194 18.4243 18.9235C18.4243 18.9235 16.3041 19.2371 14.3009 18.5044C14.5192 17.7957 15.0992 18.0517 15.9761 18.1223C17.5566 18.2166 18.9733 17.9857 20.0202 17.6855C20.9273 17.4254 22.1189 16.9123 23.0443 16.1823C23.3563 16.8674 23.4667 17.6216 23.4667 17.6216C23.4667 17.6216 23.7083 17.5785 23.9103 17.7026C24.1011 17.8199 24.2409 18.0638 24.1454 18.6945C23.9508 19.8726 23.4498 20.829 22.6075 21.7088C22.0946 22.2603 21.4724 22.7397 20.7602 23.0885C20.3819 23.2871 19.9794 23.4588 19.5538 23.5974C16.3786 24.6339 13.1282 23.4946 12.0807 21.048C11.997 20.8641 11.9263 20.6714 11.8707 20.4702C11.4244 18.8579 11.8033 16.9235 12.9881 15.7058C13.0611 15.6284 13.1356 15.5365 13.1356 15.4215C13.1356 15.3255 13.0744 15.2241 13.0215 15.152C12.6068 14.5511 11.1709 13.5273 11.4593 11.5459C11.6663 10.1225 12.9121 9.12001 14.0735 9.17942L14.3678 9.19626C14.8711 9.22611 15.31 9.29054 15.7244 9.30798C16.4179 9.33813 17.0414 9.23734 17.7802 8.62229C18.0292 8.41481 18.2291 8.23482 18.5672 8.17778C18.6027 8.17157 18.6911 8.13995 18.8677 8.14823C19.0481 8.15798 19.2196 8.20734 19.3737 8.3099C19.9658 8.70357 20.0498 9.65732 20.0806 10.3548C20.098 10.7529 20.1462 11.7164 20.1628 11.9931C20.2003 12.6256 20.3668 12.7145 20.7034 12.8254C20.8927 12.8877 21.0684 12.9341 21.3275 13.0068C22.1112 13.2267 22.5758 13.4499 22.8689 13.7366C23.0437 13.9157 23.1251 14.106 23.1502 14.2875C23.2425 14.9613 22.6267 15.7936 20.9962 16.5499C19.214 17.3766 17.0517 17.5859 15.5579 17.4195L15.0344 17.3603C13.8395 17.1996 13.1578 18.7427 13.875 19.8001C14.3373 20.4817 15.5963 20.925 16.8559 20.9253C19.744 20.9256 21.9639 19.6932 22.7897 18.6289L22.8556 18.5349C22.8964 18.4737 22.8627 18.44 22.8121 18.4746C22.1375 18.9359 19.1409 20.7675 15.9356 20.2163C15.9356 20.2163 15.546 20.1522 15.1905 20.0141C14.9081 19.9042 14.3166 19.6323 14.2447 19.0261C16.8314 19.8256 18.4598 19.0695 18.4598 19.0695ZM4.25206 12.9264C3.35237 13.1011 2.55945 13.6107 2.07471 14.3147C1.78487 14.0732 1.24511 13.6056 1.14959 13.4233C0.375595 11.9544 1.99426 9.09873 3.12523 7.48589C5.92011 3.50034 10.2973 0.483624 12.3235 1.03099C12.653 1.12409 13.744 2.38817 13.744 2.38817C13.744 2.38817 11.7184 3.51128 9.84005 5.07683C7.30898 7.02423 5.39751 9.85476 4.25206 12.9264ZM5.76366 19.6666C5.62761 19.6899 5.48861 19.6991 5.34842 19.6955C3.99475 19.6592 2.53283 18.4415 2.38762 16.9974C2.22702 15.4011 3.0433 14.1728 4.48836 13.8814C4.66108 13.8465 4.86988 13.8264 5.09495 13.8382C5.90473 13.8826 7.09781 14.5038 7.3702 16.2665C7.61153 17.8276 7.22823 19.4171 5.76366 19.6666ZM24.0993 16.8399C24.0877 16.7988 24.012 16.523 23.9082 16.1905C23.8044 15.8578 23.697 15.624 23.697 15.624C24.1135 15.0012 24.1209 14.4441 24.0653 14.1288C24.0061 13.7377 23.8432 13.4047 23.5149 13.06C23.1866 12.7157 22.5149 12.3628 21.5712 12.098L21.0761 11.9606C21.0737 11.9402 21.05 10.794 21.0287 10.3019C21.0131 9.94608 20.9826 9.39073 20.8102 8.84396C20.6046 8.1036 20.2468 7.45574 19.7999 7.04137C21.0332 5.76399 21.803 4.35656 21.801 3.14952C21.7974 0.827944 18.9443 0.125415 15.428 1.58043L14.683 1.89637C14.6798 1.89312 13.3362 0.575839 13.3161 0.558106C9.3071 -2.93623 -3.22699 10.9864 0.780188 14.3679L1.65592 15.1094C1.42878 15.6976 1.33946 16.3714 1.41251 17.0958C1.50597 18.0265 1.98628 18.9185 2.765 19.6077C3.50409 20.2621 4.47594 20.6765 5.41881 20.6756C6.97832 24.2669 10.5416 26.4699 14.7194 26.594C19.201 26.727 22.963 24.6257 24.5394 20.8508C24.6426 20.586 25.08 19.3923 25.08 18.3383C25.08 17.2794 24.4808 16.8399 24.0993 16.8399Z" fill="black"/>
</svg>
