<svg width="39" height="22" viewBox="0 0 39 22" fill="none" xmlns="http://www.w3.org/2000/svg">
<path d="M10.8308 0C16.7997 0 21.6615 4.86181 21.6615 10.8789C21.6615 16.896 16.7997 21.7578 10.8308 21.7578C4.86181 21.7578 0 16.9441 0 10.8789C0 4.81368 4.86181 0 10.8308 0ZM28.16 0.625778C31.0963 0.625778 33.5513 5.24691 33.5513 10.8789C33.5513 16.559 31.1445 21.132 28.16 21.132C25.1755 21.132 22.7687 16.559 22.7687 10.8789C22.7687 5.19877 25.1755 0.625778 28.16 0.625778ZM36.4395 1.68479C37.5467 1.68479 38.365 5.82455 38.365 10.8789C38.365 15.9333 37.4985 20.073 36.4395 20.073C35.3911 20.073 34.5314 16.0156 34.5143 11.0303L34.5141 10.8789C34.5141 5.82455 35.3805 1.68479 36.4395 1.68479Z" fill="white"/>
</svg>
