<svg width="30" height="17" viewBox="0 0 30 17" fill="none" xmlns="http://www.w3.org/2000/svg">
<path d="M8.23139 0C12.7678 0 16.4628 3.69498 16.4628 8.26797C16.4628 12.841 12.7678 16.5359 8.23139 16.5359C3.69498 16.5359 0 12.8775 0 8.26797C0 3.65839 3.69498 0 8.23139 0ZM21.4016 0.475591C23.6332 0.475591 25.499 3.98765 25.499 8.26797C25.499 12.5849 23.6698 16.0603 21.4016 16.0603C19.1334 16.0603 17.3042 12.5849 17.3042 8.26797C17.3042 3.95107 19.1334 0.475591 21.4016 0.475591ZM27.694 1.28044C28.5355 1.28044 29.1574 4.42666 29.1574 8.26797C29.1574 12.1093 28.4989 15.2555 27.694 15.2555C26.8972 15.2555 26.2439 12.1719 26.2309 8.383L26.2307 8.26797C26.2307 4.42666 26.8892 1.28044 27.694 1.28044Z" fill="black"/>
</svg>
