<svg width="83" height="25" viewBox="0 0 83 25" fill="none" xmlns="http://www.w3.org/2000/svg">
<g clip-path="url(#clip0_6_5868)">
<path d="M10.8811 4.11658L21.345 14.8418V20.5996H16.4618V16.9116L8.86181 9.12168H7.28304V20.5996H2.3999V4.11658H10.8811ZM16.4618 9.83671V4.11658H21.345V9.83671H16.4618Z" fill="black"/>
</g>
<path d="M30.3766 20.1989V4.66848H31.5862C31.8022 4.66848 31.9606 4.69728 32.0614 4.75488C32.1766 4.79808 32.2918 4.89888 32.407 5.05728L41.1118 16.3541C41.083 16.1525 41.0614 15.9581 41.047 15.7709C41.047 15.5693 41.047 15.3821 41.047 15.2093V4.66848H43.1206V20.1989H41.911C41.7382 20.1989 41.587 20.1701 41.4574 20.1125C41.3422 20.0405 41.2198 19.9253 41.0902 19.7669L32.3854 8.51328C32.3998 8.70048 32.407 8.88048 32.407 9.05328C32.4214 9.22608 32.4286 9.40608 32.4286 9.59328V20.1989H30.3766ZM28.7998 20.1989V19.2053C28.7998 19.0613 28.8358 18.9461 28.9078 18.8597C28.9798 18.7733 29.0878 18.7157 29.2318 18.6869L30.7222 18.3629L30.9814 20.1989H28.7998ZM32.0182 20.1989L32.2558 18.3629L33.7678 18.6869C33.9118 18.7157 34.0198 18.7733 34.0918 18.8597C34.1638 18.9461 34.1998 19.0613 34.1998 19.2053V20.1989H32.0182ZM30.9814 4.66848L30.7222 6.50448L29.2318 6.18048C29.0878 6.15168 28.9798 6.09408 28.9078 6.00768C28.8358 5.92128 28.7998 5.80608 28.7998 5.66208V4.66848H30.9814ZM41.479 4.66848L41.2198 6.50448L39.7294 6.18048C39.5854 6.15168 39.4774 6.09408 39.4054 6.00768C39.3334 5.92128 39.2974 5.80608 39.2974 5.66208V4.66848H41.479ZM44.6974 4.66848V5.66208C44.6974 5.80608 44.6614 5.92128 44.5894 6.00768C44.5174 6.09408 44.4094 6.15168 44.2654 6.18048L42.7534 6.50448L42.5158 4.66848H44.6974Z" fill="black"/>
<path d="M50.2108 9.03168C51.3052 9.03168 52.2412 9.26928 53.0188 9.74448C53.8108 10.2053 54.4156 10.8605 54.8332 11.7101C55.2652 12.5597 55.4812 13.5533 55.4812 14.6909C55.4812 15.8141 55.2652 16.8077 54.8332 17.6717C54.4156 18.5213 53.8108 19.1837 53.0188 19.6589C52.2412 20.1197 51.3052 20.3501 50.2108 20.3501C49.1308 20.3501 48.1876 20.1197 47.3812 19.6589C46.5892 19.1837 45.97 18.5213 45.5236 17.6717C45.0916 16.8077 44.8756 15.8141 44.8756 14.6909C44.8756 13.5533 45.0916 12.5597 45.5236 11.7101C45.97 10.8605 46.5892 10.2053 47.3812 9.74448C48.1876 9.26928 49.1308 9.03168 50.2108 9.03168ZM50.2108 18.6869C51.2332 18.6869 51.9964 18.3413 52.5004 17.6501C53.0044 16.9589 53.2564 15.9797 53.2564 14.7125C53.2564 13.8485 53.1412 13.1213 52.9108 12.5309C52.6948 11.9405 52.3564 11.4941 51.8956 11.1917C51.4492 10.8749 50.8876 10.7165 50.2108 10.7165C49.5052 10.7165 48.922 10.8749 48.4612 11.1917C48.0004 11.5085 47.662 11.9693 47.446 12.5741C47.23 13.1645 47.122 13.8773 47.122 14.7125C47.122 15.9365 47.374 16.9085 47.878 17.6285C48.382 18.3341 49.1596 18.6869 50.2108 18.6869Z" fill="black"/>
<path d="M59.7397 20.3717C58.8469 20.3717 58.1557 20.1197 57.6661 19.6157C57.1765 19.1117 56.9317 18.3989 56.9317 17.4773V10.9325H55.6789C55.5493 10.9325 55.4413 10.8965 55.3549 10.8245C55.2685 10.7525 55.2253 10.6373 55.2253 10.4789V9.61488L57.0181 9.35568L57.5149 6.11568C57.5581 5.84208 57.7165 5.70528 57.9901 5.70528H59.0917V9.37728H62.1589V10.9325H59.0917V17.3477C59.0917 17.7653 59.1925 18.0821 59.3941 18.2981C59.6101 18.5141 59.8909 18.6221 60.2365 18.6221C60.3949 18.6221 60.5533 18.5861 60.7117 18.5141C60.8845 18.4277 61.0429 18.3485 61.1869 18.2765C61.3309 18.1901 61.4461 18.1469 61.5325 18.1469C61.6333 18.1469 61.7269 18.2117 61.8133 18.3413L62.4613 19.3781C62.1013 19.6805 61.6837 19.9253 61.2085 20.1125C60.7333 20.2853 60.2437 20.3717 59.7397 20.3717Z" fill="black"/>
<path d="M65.1212 20.1989V9.20448H67.2812V20.1989H65.1212ZM63.5444 20.1989V19.2053C63.5444 19.0613 63.5804 18.9461 63.6524 18.8597C63.7244 18.7733 63.8324 18.7157 63.9764 18.6869L65.4668 18.3629L65.726 20.1989H63.5444ZM66.6548 20.1989L66.914 18.3629L68.426 18.6869C68.5556 18.7157 68.6564 18.7733 68.7284 18.8597C68.8004 18.9461 68.8364 19.0613 68.8364 19.2053V20.1989H66.6548ZM65.726 9.20448L65.4668 11.0405L63.9764 10.7165C63.8324 10.6877 63.7244 10.6301 63.6524 10.5437C63.5804 10.4573 63.5444 10.3421 63.5444 10.1981V9.20448H65.726ZM66.1796 7.28208C65.7908 7.28208 65.4452 7.13808 65.1428 6.85008C64.8548 6.56208 64.7108 6.22368 64.7108 5.83488C64.7108 5.43168 64.8548 5.08608 65.1428 4.79808C65.4452 4.49568 65.7908 4.34448 66.1796 4.34448C66.5828 4.34448 66.9284 4.49568 67.2164 4.79808C67.5188 5.08608 67.67 5.43168 67.67 5.83488C67.67 6.22368 67.5188 6.56208 67.2164 6.85008C66.9284 7.13808 66.5828 7.28208 66.1796 7.28208Z" fill="black"/>
<path d="M75.167 9.03168C76.2614 9.03168 77.1974 9.26928 77.975 9.74448C78.767 10.2053 79.3718 10.8605 79.7894 11.7101C80.2214 12.5597 80.4374 13.5533 80.4374 14.6909C80.4374 15.8141 80.2214 16.8077 79.7894 17.6717C79.3718 18.5213 78.767 19.1837 77.975 19.6589C77.1974 20.1197 76.2614 20.3501 75.167 20.3501C74.087 20.3501 73.1438 20.1197 72.3374 19.6589C71.5454 19.1837 70.9262 18.5213 70.4798 17.6717C70.0478 16.8077 69.8318 15.8141 69.8318 14.6909C69.8318 13.5533 70.0478 12.5597 70.4798 11.7101C70.9262 10.8605 71.5454 10.2053 72.3374 9.74448C73.1438 9.26928 74.087 9.03168 75.167 9.03168ZM75.167 18.6869C76.1894 18.6869 76.9526 18.3413 77.4566 17.6501C77.9606 16.9589 78.2126 15.9797 78.2126 14.7125C78.2126 13.8485 78.0974 13.1213 77.867 12.5309C77.651 11.9405 77.3126 11.4941 76.8518 11.1917C76.4054 10.8749 75.8438 10.7165 75.167 10.7165C74.4614 10.7165 73.8782 10.8749 73.4174 11.1917C72.9566 11.5085 72.6182 11.9693 72.4022 12.5741C72.1862 13.1645 72.0782 13.8773 72.0782 14.7125C72.0782 15.9365 72.3302 16.9085 72.8342 17.6285C73.3382 18.3341 74.1158 18.6869 75.167 18.6869Z" fill="black"/>
<defs>
<clipPath id="clip0_6_5868">
<rect width="19.5273" height="16.5231" fill="white" transform="translate(2.3999 3.95801)"/>
</clipPath>
</defs>
</svg>
