<svg width="83" height="25" viewBox="0 0 83 25" fill="none" xmlns="http://www.w3.org/2000/svg">
<g clip-path="url(#clip0_61_677)">
<path d="M10.8814 4.11658L21.3452 14.8418V20.5996H16.4621V16.9116L8.86205 9.12168H7.28328V20.5996H2.40015V4.11658H10.8814ZM16.4621 9.83671V4.11658H21.3452V9.83671H16.4621Z" fill="white"/>
</g>
<path d="M30.3768 20.1989V4.66848H31.5864C31.8024 4.66848 31.9608 4.69728 32.0616 4.75488C32.1768 4.79808 32.292 4.89888 32.4072 5.05728L41.1121 16.3541C41.0833 16.1525 41.0617 15.9581 41.0473 15.7709C41.0473 15.5693 41.0473 15.3821 41.0473 15.2093V4.66848H43.1208V20.1989H41.9113C41.7385 20.1989 41.5872 20.1701 41.4577 20.1125C41.3424 20.0405 41.22 19.9253 41.0905 19.7669L32.3856 8.51328C32.4 8.70048 32.4072 8.88048 32.4072 9.05328C32.4216 9.22608 32.4288 9.40608 32.4288 9.59328V20.1989H30.3768ZM28.8 20.1989V19.2053C28.8 19.0613 28.836 18.9461 28.908 18.8597C28.98 18.7733 29.088 18.7157 29.232 18.6869L30.7224 18.3629L30.9816 20.1989H28.8ZM32.0184 20.1989L32.256 18.3629L33.768 18.6869C33.912 18.7157 34.02 18.7733 34.092 18.8597C34.164 18.9461 34.2 19.0613 34.2 19.2053V20.1989H32.0184ZM30.9816 4.66848L30.7224 6.50448L29.232 6.18048C29.088 6.15168 28.98 6.09408 28.908 6.00768C28.836 5.92128 28.8 5.80608 28.8 5.66208V4.66848H30.9816ZM41.4793 4.66848L41.22 6.50448L39.7296 6.18048C39.5856 6.15168 39.4776 6.09408 39.4056 6.00768C39.3336 5.92128 39.2976 5.80608 39.2976 5.66208V4.66848H41.4793ZM44.6976 4.66848V5.66208C44.6976 5.80608 44.6616 5.92128 44.5896 6.00768C44.5176 6.09408 44.4096 6.15168 44.2656 6.18048L42.7537 6.50448L42.516 4.66848H44.6976Z" fill="white"/>
<path d="M50.211 9.03168C51.3054 9.03168 52.2414 9.26928 53.019 9.74448C53.811 10.2053 54.4158 10.8605 54.8334 11.7101C55.2654 12.5597 55.4814 13.5533 55.4814 14.6909C55.4814 15.8141 55.2654 16.8077 54.8334 17.6717C54.4158 18.5213 53.811 19.1837 53.019 19.6589C52.2414 20.1197 51.3054 20.3501 50.211 20.3501C49.131 20.3501 48.1878 20.1197 47.3814 19.6589C46.5894 19.1837 45.9702 18.5213 45.5238 17.6717C45.0918 16.8077 44.8758 15.8141 44.8758 14.6909C44.8758 13.5533 45.0918 12.5597 45.5238 11.7101C45.9702 10.8605 46.5894 10.2053 47.3814 9.74448C48.1878 9.26928 49.131 9.03168 50.211 9.03168ZM50.211 18.6869C51.2334 18.6869 51.9966 18.3413 52.5006 17.6501C53.0046 16.9589 53.2566 15.9797 53.2566 14.7125C53.2566 13.8485 53.1414 13.1213 52.911 12.5309C52.695 11.9405 52.3566 11.4941 51.8958 11.1917C51.4494 10.8749 50.8878 10.7165 50.211 10.7165C49.5054 10.7165 48.9222 10.8749 48.4614 11.1917C48.0006 11.5085 47.6622 11.9693 47.4462 12.5741C47.2302 13.1645 47.1222 13.8773 47.1222 14.7125C47.1222 15.9365 47.3742 16.9085 47.8782 17.6285C48.3822 18.3341 49.1598 18.6869 50.211 18.6869Z" fill="white"/>
<path d="M59.74 20.3717C58.8472 20.3717 58.156 20.1197 57.6664 19.6157C57.1768 19.1117 56.932 18.3989 56.932 17.4773V10.9325H55.6792C55.5496 10.9325 55.4416 10.8965 55.3552 10.8245C55.2688 10.7525 55.2256 10.6373 55.2256 10.4789V9.61488L57.0184 9.35568L57.5152 6.11568C57.5584 5.84208 57.7168 5.70528 57.9904 5.70528H59.092V9.37728H62.1592V10.9325H59.092V17.3477C59.092 17.7653 59.1928 18.0821 59.3944 18.2981C59.6104 18.5141 59.8912 18.6221 60.2368 18.6221C60.3952 18.6221 60.5536 18.5861 60.712 18.5141C60.8848 18.4277 61.0432 18.3485 61.1872 18.2765C61.3312 18.1901 61.4464 18.1469 61.5328 18.1469C61.6336 18.1469 61.7272 18.2117 61.8136 18.3413L62.4616 19.3781C62.1016 19.6805 61.684 19.9253 61.2088 20.1125C60.7336 20.2853 60.244 20.3717 59.74 20.3717Z" fill="white"/>
<path d="M65.1214 20.1989V9.20448H67.2814V20.1989H65.1214ZM63.5446 20.1989V19.2053C63.5446 19.0613 63.5806 18.9461 63.6526 18.8597C63.7246 18.7733 63.8326 18.7157 63.9766 18.6869L65.467 18.3629L65.7262 20.1989H63.5446ZM66.655 20.1989L66.9142 18.3629L68.4262 18.6869C68.5558 18.7157 68.6566 18.7733 68.7286 18.8597C68.8006 18.9461 68.8366 19.0613 68.8366 19.2053V20.1989H66.655ZM65.7262 9.20448L65.467 11.0405L63.9766 10.7165C63.8326 10.6877 63.7246 10.6301 63.6526 10.5437C63.5806 10.4573 63.5446 10.3421 63.5446 10.1981V9.20448H65.7262ZM66.1798 7.28208C65.791 7.28208 65.4454 7.13808 65.143 6.85008C64.855 6.56208 64.711 6.22368 64.711 5.83488C64.711 5.43168 64.855 5.08608 65.143 4.79808C65.4454 4.49568 65.791 4.34448 66.1798 4.34448C66.583 4.34448 66.9286 4.49568 67.2166 4.79808C67.519 5.08608 67.6702 5.43168 67.6702 5.83488C67.6702 6.22368 67.519 6.56208 67.2166 6.85008C66.9286 7.13808 66.583 7.28208 66.1798 7.28208Z" fill="white"/>
<path d="M75.1673 9.03168C76.2617 9.03168 77.1977 9.26928 77.9753 9.74448C78.7673 10.2053 79.3721 10.8605 79.7897 11.7101C80.2217 12.5597 80.4377 13.5533 80.4377 14.6909C80.4377 15.8141 80.2217 16.8077 79.7897 17.6717C79.3721 18.5213 78.7673 19.1837 77.9753 19.6589C77.1977 20.1197 76.2617 20.3501 75.1673 20.3501C74.0873 20.3501 73.1441 20.1197 72.3377 19.6589C71.5457 19.1837 70.9265 18.5213 70.4801 17.6717C70.0481 16.8077 69.8321 15.8141 69.8321 14.6909C69.8321 13.5533 70.0481 12.5597 70.4801 11.7101C70.9265 10.8605 71.5457 10.2053 72.3377 9.74448C73.1441 9.26928 74.0873 9.03168 75.1673 9.03168ZM75.1673 18.6869C76.1897 18.6869 76.9529 18.3413 77.4569 17.6501C77.9609 16.9589 78.2129 15.9797 78.2129 14.7125C78.2129 13.8485 78.0977 13.1213 77.8673 12.5309C77.6513 11.9405 77.3129 11.4941 76.8521 11.1917C76.4057 10.8749 75.8441 10.7165 75.1673 10.7165C74.4617 10.7165 73.8785 10.8749 73.4177 11.1917C72.9569 11.5085 72.6185 11.9693 72.4025 12.5741C72.1865 13.1645 72.0785 13.8773 72.0785 14.7125C72.0785 15.9365 72.3305 16.9085 72.8345 17.6285C73.3385 18.3341 74.1161 18.6869 75.1673 18.6869Z" fill="white"/>
<defs>
<clipPath id="clip0_61_677">
<rect width="19.5273" height="16.5231" fill="white" transform="translate(2.40002 3.95801)"/>
</clipPath>
</defs>
</svg>
