<svg width="26" height="27" viewBox="0 0 26 27" fill="none" xmlns="http://www.w3.org/2000/svg">
<path fill-rule="evenodd" clip-rule="evenodd" d="M4.34116 4.5844C5.16058 5.24544 5.45696 5.19325 6.99119 5.08888L21.4443 4.21908C21.7581 4.21908 21.4966 3.90595 21.392 3.87116L18.986 2.14896C18.5328 1.80104 17.9051 1.38353 16.737 1.48791L2.75463 2.51427C2.24904 2.56646 2.14443 2.8274 2.35364 3.01876L4.34116 4.5844ZM5.21288 7.94182V23.1111C5.21288 23.9287 5.61387 24.2245 6.5379 24.1723L22.4206 23.2503C23.3446 23.1981 23.4492 22.6414 23.4492 21.9804V6.91546C23.4492 6.25441 23.1877 5.88909 22.6298 5.94128L6.0323 6.91546C5.42209 6.96764 5.21288 7.28077 5.21288 7.94182ZM20.8864 8.75943C20.991 9.21173 20.8864 9.68142 20.4331 9.7336L19.666 9.89017V21.0932C19.0035 21.4411 18.3933 21.6499 17.8702 21.6499C17.0508 21.6499 16.8416 21.3889 16.2314 20.6235L11.2277 12.7779V20.3626L12.8143 20.7105C12.8143 20.7105 12.8143 21.6325 11.5416 21.6325L8.01982 21.8412C7.91521 21.6325 8.01982 21.128 8.36851 21.0236L9.29253 20.7627V10.7426L8.01982 10.6382C7.91521 10.1859 8.17673 9.52485 8.89154 9.47267L12.6748 9.21173L17.8877 17.1443V10.1337L16.5627 9.97715C16.4581 9.42048 16.8765 9.00297 17.3821 8.95079L20.8864 8.75943ZM1.58653 1.12259L16.1442 0.061439C17.9225 -0.0951248 18.3933 0.00925143 19.5091 0.826863L24.1466 4.07991C24.9137 4.63658 25.1752 4.79315 25.1752 5.40201V23.2677C25.1752 24.381 24.7743 25.0421 23.3446 25.1464L6.45072 26.1728C5.36979 26.225 4.86419 26.0684 4.30629 25.3552L0.871719 20.9192C0.261516 20.1016 0 19.4928 0 18.7795V2.89698C0 1.975 0.418425 1.22697 1.58653 1.12259Z" fill="black"/>
</svg>
