<svg width="86" height="32" viewBox="0 0 86 32" fill="none" xmlns="http://www.w3.org/2000/svg">
<path d="M29.9571 23.1832V13.4798H30.13L37.1931 23.1832H39.4157V8.93368H36.9461V18.6126H36.7732L29.7101 8.93368H27.4875V23.1832H29.9571ZM46.4047 23.4032C49.6646 23.4032 51.665 21.3012 51.665 17.7816C51.665 14.2864 49.6646 12.16 46.4047 12.16C43.1695 12.16 41.1445 14.2864 41.1445 17.7816C41.1692 21.3012 43.1448 23.4032 46.4047 23.4032ZM46.4047 21.3501C44.676 21.3501 43.6882 20.0547 43.6882 17.7816C43.6882 15.5329 44.676 14.2131 46.4047 14.2131C48.1335 14.2131 49.1213 15.5329 49.1213 17.7816C49.1213 20.0547 48.1335 21.3501 46.4047 21.3501ZM53.9124 9.74025V12.4533H52.1837V14.4086H53.9124V20.2991C53.9124 22.4011 54.9002 23.2321 57.4192 23.2321C57.8885 23.2321 58.3577 23.1832 58.7281 23.1099V21.2034C58.4318 21.2279 58.2342 21.2523 57.8885 21.2523C56.8512 21.2523 56.382 20.7879 56.382 19.7125V14.4086H58.7281V12.4533H56.382V9.74025H53.9124ZM60.2099 23.1832H62.6795V12.38H60.2099V23.1832ZM61.4447 10.5957C62.2597 10.5957 62.9265 9.93579 62.9265 9.12921C62.9265 8.29819 62.2597 7.63826 61.4447 7.63826C60.6298 7.63826 59.963 8.29819 59.963 9.12921C59.963 9.93579 60.6298 10.5957 61.4447 10.5957ZM69.4463 23.4032C72.7062 23.4032 74.7066 21.3012 74.7066 17.7816C74.7066 14.2864 72.7062 12.16 69.4463 12.16C66.2111 12.16 64.186 14.2864 64.186 17.7816C64.186 21.3012 66.1617 23.4032 69.4463 23.4032ZM69.4463 21.3501C67.7176 21.3501 66.7297 20.0547 66.7297 17.7816C66.7297 15.5329 67.7176 14.2131 69.4463 14.2131C71.1503 14.2131 72.1629 15.5329 72.1629 17.7816C72.1382 20.0547 71.1503 21.3501 69.4463 21.3501ZM76.1637 23.1832H78.6333V16.9017C78.6333 15.313 79.5717 14.3109 81.0288 14.3109C82.5353 14.3109 83.2268 15.1419 83.2268 16.7795V23.1832H85.6964V16.1929C85.6964 13.602 84.3628 12.16 81.9426 12.16C80.3126 12.16 79.226 12.8932 78.7074 14.1153H78.5345V12.38H76.139C76.1637 12.38 76.1637 23.1832 76.1637 23.1832Z" fill="white"/>
<path fill-rule="evenodd" clip-rule="evenodd" d="M3.80804 8.02164C4.52682 8.60151 4.78681 8.55573 6.13262 8.46417L18.8108 7.70119C19.0861 7.70119 18.8567 7.42652 18.7649 7.396L16.6544 5.88529C16.2568 5.5801 15.7062 5.21387 14.6816 5.30543L2.41634 6.20575C1.97284 6.25152 1.88108 6.48042 2.0646 6.64828L3.80804 8.02164ZM4.5727 10.9668V24.2731C4.5727 24.9904 4.92445 25.2498 5.735 25.204L19.6672 24.3952C20.4778 24.3494 20.5695 23.8611 20.5695 23.2813V10.0664C20.5695 9.48657 20.3401 9.16611 19.8507 9.21189L5.29149 10.0664C4.75622 10.1122 4.5727 10.3869 4.5727 10.9668ZM18.3214 11.684C18.4132 12.0807 18.3214 12.4927 17.9238 12.5385L17.2509 12.6758V22.503C16.6697 22.8082 16.1345 22.9913 15.6757 22.9913C14.9569 22.9913 14.7733 22.7624 14.2381 22.091L9.8489 15.2089V21.8621L11.2406 22.1673C11.2406 22.1673 11.2406 22.9761 10.1242 22.9761L7.03493 23.1592C6.94317 22.9761 7.03493 22.5336 7.34079 22.442L8.15134 22.2131V13.4236L7.03493 13.332C6.94317 12.9352 7.17257 12.3554 7.79959 12.3096L11.1182 12.0807L15.6909 19.0391V12.8895L14.5287 12.7521C14.4369 12.2638 14.8039 11.8976 15.2474 11.8518L18.3214 11.684ZM1.39169 4.98498L14.1616 4.05414C15.7215 3.9168 16.1345 4.00836 17.1132 4.72556L21.1812 7.57911C21.8542 8.06742 22.0836 8.20476 22.0836 8.73885V24.4105C22.0836 25.3871 21.7318 25.967 20.4778 26.0585L5.65853 26.9588C4.71034 27.0046 4.26684 26.8673 3.77745 26.2416L0.764666 22.3504C0.2294 21.6332 0 21.0991 0 20.4735V6.54146C0 5.7327 0.36704 5.07653 1.39169 4.98498Z" fill="white"/>
</svg>
