<svg width="80" height="32" viewBox="0 0 80 32" fill="none" xmlns="http://www.w3.org/2000/svg">
<path d="M25.0743 21.6175L26.045 19.3298C27.1077 20.1235 28.494 20.5435 29.8805 20.5435C30.8972 20.5435 31.5441 20.1468 31.5441 19.54C31.5209 17.8592 25.4209 19.1664 25.3745 14.9407C25.3514 12.7931 27.2463 11.1356 29.9269 11.1356C31.5209 11.1356 33.1156 11.5326 34.2477 12.4432L33.3406 14.7796C32.299 14.1043 31.0126 13.6335 29.7881 13.6335C28.9563 13.6335 28.4015 14.0301 28.4015 14.544C28.4247 16.2015 34.5714 15.2909 34.6407 19.3298C34.6407 21.5242 32.7918 23.065 30.1576 23.065C28.2169 23.065 26.4377 22.5982 25.074 21.6175H25.0743ZM63.7242 18.5015C63.4792 18.9404 63.1228 19.3058 62.6916 19.56C62.2604 19.8143 61.7698 19.9483 61.2703 19.9484C59.7134 19.9484 58.4514 18.6732 58.4514 17.1003C58.4514 15.5275 59.7134 14.2523 61.2703 14.2523C61.7698 14.2524 62.2604 14.3864 62.6916 14.6406C63.1228 14.8949 63.4792 15.2603 63.7242 15.6992L66.4228 14.1888C65.412 12.3673 63.484 11.1356 61.2703 11.1356C58.0097 11.1356 55.3665 13.8059 55.3665 17.1003C55.3665 20.3945 58.0097 23.065 61.2703 23.065C63.484 23.065 65.412 21.8333 66.4228 20.0118L63.7242 18.5015ZM36.3918 22.8315H39.7654V6.17041H36.3921L36.3918 22.8315ZM68.1265 6.17041V22.8315H71.5001V17.8398L75.4977 22.8315H79.8098L74.7262 16.9015L79.44 11.3682H75.3128L71.5001 15.9686V6.17041H68.1265ZM50.1589 11.3689V12.7232C49.6045 11.7893 48.2411 11.1356 46.8085 11.1356C43.8508 11.1356 41.5171 13.7738 41.5171 17.0886C41.5171 20.4035 43.8508 23.065 46.8085 23.065C48.2411 23.065 49.6045 22.4114 50.1589 21.4775V22.8315H53.5325V11.3689H50.1589ZM50.1589 18.5245C49.6738 19.3415 48.657 19.948 47.525 19.948C45.9678 19.948 44.7058 18.6732 44.7058 17.1003C44.7058 15.5275 45.9678 14.2523 47.525 14.2523C48.657 14.2523 49.6738 14.8825 50.1589 15.7226V18.5245Z" fill="white"/>
<path d="M7.25846 5.80249C6.16519 5.80249 5.27904 6.69803 5.27904 7.80242C5.27877 8.06479 5.32977 8.32464 5.4291 8.56714C5.52844 8.80964 5.67416 9.03004 5.85797 9.21575C6.04178 9.40146 6.26006 9.54885 6.50036 9.6495C6.74065 9.75014 6.99826 9.80208 7.25846 9.80235H9.23821V7.80242C9.23865 7.27251 9.03033 6.76412 8.65906 6.38907C8.2878 6.01402 7.78399 5.80302 7.25846 5.80249ZM7.25846 11.1356H1.97967C0.886395 11.1356 0.000244141 12.0312 0.000244141 13.1359C0.000244141 14.2403 0.886395 15.1358 1.97967 15.1358H7.25879C8.35173 15.1358 9.23821 14.2403 9.23821 13.1359C9.23821 12.0312 8.35173 11.1356 7.25846 11.1356Z" fill="white"/>
<path d="M19.7958 13.1359C19.7958 12.0312 18.9093 11.1356 17.8161 11.1356C16.7228 11.1356 15.8367 12.0312 15.8367 13.1359V15.1358H17.8161C18.3416 15.1353 18.8454 14.9243 19.2167 14.5492C19.5879 14.1742 19.7963 13.6658 19.7958 13.1359ZM14.517 13.1359V7.80242C14.5175 7.2725 14.3092 6.76411 13.9379 6.38907C13.5666 6.01402 13.0628 5.80302 12.5373 5.80249C11.444 5.80249 10.5579 6.69803 10.5579 7.80242V13.1356C10.5579 14.2406 11.444 15.1362 12.5373 15.1362C13.0628 15.1356 13.5666 14.9246 13.9379 14.5496C14.3092 14.1745 14.5175 13.6661 14.517 13.1362" fill="white"/>
<path d="M12.5373 25.8023C13.0628 25.8018 13.5666 25.5908 13.9379 25.2157C14.3092 24.8407 14.5175 24.3323 14.517 23.8024C14.5175 23.2725 14.3092 22.7641 13.9379 22.389C13.5666 22.014 13.0628 21.803 12.5373 21.8025H10.5579V23.8024C10.5579 24.9068 11.444 25.8023 12.5373 25.8023ZM12.5373 20.4692H17.8164C18.9093 20.4692 19.7958 19.5736 19.7958 18.4689C19.7963 17.939 19.5879 17.4306 19.2167 17.0556C18.8454 16.6805 18.3416 16.4695 17.8161 16.469H12.5373C11.444 16.469 10.5579 17.3645 10.5579 18.4689C10.5576 18.7313 10.6086 18.9911 10.7079 19.2336C10.8073 19.4761 10.953 19.6965 11.1368 19.8823C11.3206 20.068 11.5389 20.2154 11.7792 20.316C12.0195 20.4166 12.2771 20.4686 12.5373 20.4689" fill="white"/>
<path d="M9.98769e-07 18.4689C-0.000260249 18.7313 0.0507318 18.9911 0.150066 19.2336C0.2494 19.4761 0.39513 19.6965 0.578937 19.8823C0.762743 20.068 0.981026 20.2154 1.22132 20.316C1.46162 20.4166 1.71922 20.4686 1.97942 20.4689C2.50496 20.4683 3.00876 20.2573 3.38003 19.8823C3.75129 19.5072 3.95962 18.9988 3.95918 18.4689V16.469H1.97942C0.886151 16.469 9.98769e-07 17.3645 9.98769e-07 18.4689ZM5.27879 18.4689V23.8021C5.27879 24.9068 6.16494 25.8023 7.25822 25.8023C7.78375 25.8018 8.28755 25.5908 8.65882 25.2157C9.03009 24.8407 9.23841 24.3323 9.23797 23.8024V18.4689C9.23823 18.2065 9.18723 17.9466 9.08787 17.7041C8.98852 17.4616 8.84276 17.2412 8.65892 17.0555C8.47508 16.8698 8.25675 16.7224 8.01642 16.6217C7.77609 16.5211 7.51845 16.4692 7.25822 16.469C6.16494 16.469 5.27879 17.3645 5.27879 18.4689Z" fill="white"/>
</svg>
