<svg width="21" height="14" viewBox="0 0 21 14" fill="none" xmlns="http://www.w3.org/2000/svg">
<g clip-path="url(#clip0_11_614)">
<mask id="mask0_11_614" style="mask-type:luminance" maskUnits="userSpaceOnUse" x="0" y="0" width="21" height="14">
<path d="M21 0H0V14H21V0Z" fill="white"/>
</mask>
<g mask="url(#mask0_11_614)">
<path d="M1.20845 8.41661C1.29721 8.65216 1.42009 8.85354 1.57714 9.02084C1.73417 9.1881 1.92021 9.31611 2.13526 9.40488C2.35034 9.49365 2.58417 9.53801 2.83679 9.53801C3.08259 9.53801 3.313 9.4919 3.52808 9.39972C3.74315 9.30754 3.93089 9.17782 4.09133 9.01056C4.25177 8.84331 4.37636 8.64363 4.46513 8.41149C4.55389 8.17936 4.59826 7.91992 4.59826 7.63314V3.20898H5.67359V10.3777H4.60849V9.71209C4.36956 9.96466 4.08791 10.1593 3.76361 10.2958C3.43929 10.4324 3.08941 10.5006 2.7139 10.5006C2.33155 10.5006 1.97483 10.4341 1.64369 10.3009C1.31257 10.1678 1.0258 9.97836 0.783444 9.73257C0.541091 9.48678 0.349902 9.19151 0.209951 8.84672C0.0699759 8.50192 0 8.11793 0 7.69461V3.20898H1.07531V7.63314C1.07531 7.91992 1.11969 8.18106 1.20845 8.41661Z" fill="white"/>
<path d="M7.52726 3.20898V5.82044C7.76622 5.58153 8.04272 5.39204 8.3568 5.25209C8.67084 5.11213 9.01222 5.04213 9.3809 5.04213C9.76323 5.04213 10.1216 5.11379 10.4562 5.25721C10.7907 5.40058 11.0809 5.59513 11.3267 5.84096C11.5725 6.08675 11.7671 6.3769 11.9104 6.71141C12.0538 7.04601 12.1255 7.401 12.1255 7.77651C12.1255 8.15201 12.0538 8.50534 11.9104 8.83644C11.7671 9.16758 11.5725 9.45607 11.3267 9.70181C11.0809 9.9476 10.7907 10.1422 10.4562 10.2856C10.1216 10.4289 9.76323 10.5006 9.3809 10.5006C9.01218 10.5006 8.66913 10.4306 8.35168 10.2907C8.03419 10.1507 7.75598 9.96125 7.51702 9.72229V10.3777H6.49292V3.20898H7.52726ZM7.64503 8.48316C7.73717 8.70164 7.86523 8.89283 8.02907 9.05667C8.19291 9.22052 8.3841 9.35028 8.60255 9.44583C8.82108 9.54142 9.05658 9.5892 9.3092 9.5892C9.55503 9.5892 9.78712 9.54142 10.0056 9.44583C10.2241 9.35028 10.4135 9.22056 10.574 9.05667C10.7344 8.89283 10.8625 8.70164 10.958 8.48316C11.0536 8.26467 11.1014 8.02916 11.1014 7.77651C11.1014 7.52389 11.0536 7.28664 10.958 7.06474C10.8625 6.84288 10.7344 6.64999 10.574 6.48614C10.4135 6.3223 10.2241 6.19429 10.0056 6.10211C9.78712 6.00997 9.55498 5.96386 9.3092 5.96386C9.06345 5.96386 8.83131 6.00993 8.61283 6.10211C8.39434 6.19429 8.20319 6.3223 8.03931 6.48614C7.87546 6.64999 7.74574 6.84288 7.65015 7.06474C7.55456 7.28664 7.50678 7.52389 7.50678 7.77651C7.50678 8.02916 7.55285 8.26467 7.64503 8.48316Z" fill="white"/>
<path d="M12.7089 6.72202C12.8454 6.39428 13.0332 6.10584 13.2722 5.85664C13.5111 5.60744 13.7945 5.41113 14.1222 5.26777C14.4499 5.1244 14.8049 5.05273 15.1873 5.05273C15.5628 5.05273 15.911 5.12103 16.2319 5.25753C16.5527 5.39407 16.8292 5.58355 17.0614 5.82593C17.2935 6.0683 17.4745 6.35504 17.6041 6.68618C17.7339 7.01733 17.7987 7.37748 17.7987 7.76663V8.1046H13.5487C13.5828 8.31627 13.6511 8.51253 13.7535 8.69343C13.8559 8.87434 13.984 9.0314 14.1376 9.16453C14.2912 9.29767 14.4653 9.40179 14.6598 9.47687C14.8544 9.55198 15.0609 9.58957 15.2794 9.58957C15.9008 9.58957 16.4026 9.3335 16.7849 8.82145L17.5325 9.37445C17.2731 9.72265 16.9522 9.99574 16.5698 10.1938C16.1875 10.3917 15.7574 10.4907 15.2795 10.4907C14.8903 10.4907 14.5268 10.4224 14.1888 10.2859C13.8508 10.1494 13.5573 9.9582 13.3081 9.71237C13.0589 9.46658 12.8626 9.17814 12.7192 8.84704C12.5758 8.5159 12.5042 8.15575 12.5042 7.76659C12.5041 7.39791 12.5724 7.0497 12.7089 6.72202ZM14.1478 6.31746C13.8576 6.55983 13.6647 6.88245 13.5692 7.28525H16.7542C16.6654 6.88245 16.476 6.55983 16.1858 6.31746C15.8956 6.07513 15.5559 5.95394 15.1668 5.95394C14.7776 5.95394 14.4379 6.07513 14.1478 6.31746Z" fill="white"/>
<path d="M19.7344 6.4344C19.5159 6.67336 19.4067 6.99768 19.4067 7.40731V10.3773H18.3723V5.15427H19.3964V5.7995C19.5261 5.58784 19.6951 5.42054 19.9033 5.29769C20.1116 5.17475 20.3591 5.11328 20.6459 5.11328H21.0043V6.07596H20.5742C20.2328 6.076 19.9529 6.19548 19.7344 6.4344Z" fill="white"/>
</g>
</g>
<defs>
<clipPath id="clip0_11_614">
<rect width="21" height="14" fill="white"/>
</clipPath>
</defs>
</svg>
