<svg width="112" height="32" viewBox="0 0 112 32" fill="none" xmlns="http://www.w3.org/2000/svg">
<path fill-rule="evenodd" clip-rule="evenodd" d="M29.7642 6.7373L20.2667 25.3036H11.346L15.3207 17.6089H15.1424C11.8633 21.8655 6.97093 24.6677 0 25.3036V17.7155C0 17.7155 4.45947 17.4521 7.08106 14.6958H0V6.73745H7.95835V13.2831L8.13698 13.2823L11.389 6.73745H17.4078V13.2416L17.5864 13.2413L20.9604 6.7373H29.7642Z" fill="white"/>
<path d="M81.5537 23.2542H84.1167V8.54224H81.5537V23.2542Z" fill="white"/>
<path fill-rule="evenodd" clip-rule="evenodd" d="M67.4239 23.1039C67.981 23.3355 68.5474 23.4513 69.1233 23.4513C70.0747 23.4513 70.9258 23.2197 71.6769 22.7566C72.428 22.2934 73.0101 21.6549 73.4232 20.8413C73.8364 20.0213 74.0429 19.0919 74.0429 18.0529C74.0429 17.0138 73.8301 16.0844 73.4045 15.2645C72.9789 14.4445 72.3874 13.8092 71.63 13.3586C70.8727 12.9017 70.0121 12.6763 69.0481 12.6826C68.4348 12.6826 67.8465 12.8015 67.2831 13.0394C66.7197 13.2772 66.2504 13.6152 65.8748 14.0533C65.8458 14.0867 65.8177 14.1204 65.7903 14.1544V8.55162H63.2178V23.2542H65.7716L65.7664 21.8807C65.8325 21.9616 65.9031 22.0407 65.9781 22.1181C66.385 22.5375 66.8669 22.8661 67.4239 23.1039ZM70.0527 20.7286C69.6334 20.9852 69.1546 21.1136 68.6163 21.1136C68.0843 21.1136 67.5961 20.9821 67.1517 20.7192C66.7073 20.45 66.3536 20.0839 66.0908 19.6208C65.8342 19.1576 65.7059 18.6319 65.7059 18.0435C65.6996 17.4551 65.8248 16.9294 66.0814 16.4662C66.3443 15.9968 66.6979 15.6337 67.1423 15.3771C67.5867 15.1142 68.078 14.9859 68.6163 14.9922C69.1546 14.9859 69.6334 15.1111 70.0527 15.3677C70.4784 15.6181 70.8038 15.978 71.0292 16.4474C71.2607 16.9106 71.3765 17.4426 71.3765 18.0435C71.3765 18.6443 71.2607 19.1764 71.0292 19.6395C70.8038 20.1027 70.4784 20.4657 70.0527 20.7286Z" fill="white"/>
<path d="M33.4773 9.43415H36.4065L39.0269 19.0036L41.8144 9.43415H44.2554L47.2786 18.8116L49.7946 9.43415H52.4798L48.5178 23.2542H45.9922L42.9182 14.0931L40.0962 23.2542H37.5425L33.4773 9.43415Z" fill="white"/>
<path fill-rule="evenodd" clip-rule="evenodd" d="M56.8055 23.4983C55.7852 23.5045 54.8652 23.2791 54.0452 22.8223C53.2316 22.3591 52.59 21.7175 52.1206 20.8976C51.6574 20.0776 51.4258 19.1419 51.4258 18.0904C51.4258 17.0702 51.6637 16.147 52.1393 15.3208C52.615 14.4946 53.2597 13.8499 54.0733 13.3867C54.887 12.9236 55.7946 12.692 56.7961 12.692C57.9227 12.692 58.9085 12.9424 59.7535 13.4431C60.6047 13.9438 61.24 14.6542 61.6593 15.5743C62.0849 16.4881 62.2383 17.5365 62.1194 18.7194H54.0774C54.0998 19.1907 54.2174 19.6195 54.4302 20.0057C54.668 20.4313 54.9998 20.763 55.4253 21.0009C55.8509 21.2387 56.3266 21.3576 56.8524 21.3576C57.253 21.3514 57.6254 21.2825 57.9696 21.1511C58.3139 21.0134 58.6049 20.8287 58.8428 20.5972C59.0868 20.3656 59.259 20.1027 59.3591 19.8086H62.0443C61.8816 20.5283 61.5561 21.1699 61.0679 21.7332C60.5796 22.2902 59.9662 22.7252 59.2277 23.0382C58.4891 23.3511 57.6817 23.5045 56.8055 23.4983ZM54.4396 16.1376C54.2895 16.3992 54.1856 16.6808 54.1278 16.9826H59.4586C59.4199 16.6013 59.3023 16.254 59.1056 15.9404C58.8804 15.5712 58.5737 15.2864 58.1856 15.0861C57.7975 14.8795 57.3594 14.7763 56.8712 14.7763C56.3517 14.7763 55.8792 14.8952 55.4535 15.133C55.0279 15.3709 54.6898 15.7057 54.4396 16.1376Z" fill="white"/>
<path d="M75.9299 12.9079C75.9299 12.0692 76.1209 11.3244 76.5027 10.6734C76.8845 10.0162 77.4197 9.50613 78.1082 9.14311C78.8028 8.77382 79.6135 8.58292 80.5398 8.5704V10.8518C80.1079 10.8581 79.7387 10.9488 79.4319 11.1241C79.1315 11.2931 78.8999 11.5403 78.7372 11.8658C78.5873 12.1654 78.5065 12.5128 78.4946 12.9079H80.4835V15.0767H78.493V23.2542H75.9299V15.0767H74.2776V12.9079H75.9299Z" fill="white"/>
<path fill-rule="evenodd" clip-rule="evenodd" d="M90.6324 23.4795C89.5871 23.4795 88.6514 23.251 87.8252 22.7941C87.0053 22.3309 86.3606 21.6925 85.8912 20.8789C85.428 20.0589 85.1964 19.1295 85.1964 18.0904C85.1964 17.0452 85.428 16.1126 85.8912 15.2926C86.3606 14.4664 87.0053 13.8249 87.8252 13.368C88.6514 12.9111 89.5871 12.6826 90.6324 12.6826C91.6839 12.6826 92.6228 12.9111 93.449 13.368C94.2815 13.8249 94.9292 14.4633 95.3924 15.2832C95.8555 16.1032 96.0903 17.0389 96.0966 18.0904C96.0903 19.1295 95.8555 20.0589 95.3924 20.8789C94.9355 21.6925 94.2908 22.3309 93.4584 22.7941C92.6259 23.251 91.6839 23.4795 90.6324 23.4795ZM90.6324 21.123C91.1832 21.123 91.6714 20.9978 92.097 20.7474C92.5227 20.4908 92.8512 20.1339 93.0828 19.6771C93.3144 19.2139 93.4302 18.6851 93.4302 18.0904C93.4302 17.4896 93.3144 16.9575 93.0828 16.4944C92.8512 16.0312 92.5227 15.6744 92.097 15.4241C91.6714 15.1674 91.1832 15.0391 90.6324 15.0391C90.0878 15.0391 89.6028 15.1674 89.1772 15.4241C88.7578 15.6744 88.4323 16.0312 88.2008 16.4944C87.9691 16.9575 87.8565 17.4896 87.8628 18.0904C87.8628 18.6851 87.9785 19.2139 88.2101 19.6771C88.448 20.1339 88.7734 20.4908 89.1866 20.7474C89.6059 20.9978 90.0878 21.123 90.6324 21.123Z" fill="white"/>
<path d="M98.8661 12.9079H96.0121L99.1009 23.2542H101.598L103.63 16.646L105.823 23.2542H108.283L111.381 12.9079H108.8L107.042 19.3478L105.1 12.9079H102.603L100.67 19.4897L98.8661 12.9079Z" fill="white"/>
</svg>
